<?xml version="1.0" encoding="UTF-8" standalone="no"?>
<!DOCTYPE svg PUBLIC "-//W3C//DTD SVG 1.1//EN"
 "http://www.w3.org/Graphics/SVG/1.1/DTD/svg11.dtd">
<!-- Generated by graphviz version 2.30.1 (20130526.1459)
 -->
<!-- Title: controllers_diagram Pages: 1 -->
<svg width="1338pt" height="1359pt"
 viewBox="0.00 0.00 1338.00 1359.00" xmlns="http://www.w3.org/2000/svg" xmlns:xlink="http://www.w3.org/1999/xlink">
<g id="graph0" class="graph" transform="scale(1 1) rotate(0) translate(4 1355)">
<title>controllers_diagram</title>
<polygon fill="white" stroke="white" points="-4,5 -4,-1355 1335,-1355 1335,5 -4,5"/>
<!-- _diagram_info -->
<g id="node1" class="node"><title>_diagram_info</title>
<text text-anchor="start" x="197" y="-150" font-family="Times,serif" font-size="13.00">Controllers diagram</text>
<text text-anchor="start" x="197" y="-134.4" font-family="Times,serif" font-size="13.00">Date: May 26 2013 &#45; 17:00</text>
<text text-anchor="start" x="197" y="-118.8" font-family="Times,serif" font-size="13.00">Migration version: 20130411105438</text>
<text text-anchor="start" x="197" y="-103.2" font-family="Times,serif" font-size="13.00">Generated by RailRoady 1.1.0</text>
<text text-anchor="start" x="197" y="-87.6" font-family="Times,serif" font-size="13.00">http://railroady.prestonlee.com</text>
</g>
<!-- ApplicationController -->
<g id="node2" class="node"><title>ApplicationController</title>
<path fill="none" stroke="black" d="M588.443,-353.68C588.443,-353.68 837.837,-353.68 837.837,-353.68 843.837,-353.68 849.837,-359.68 849.837,-365.68 849.837,-365.68 849.837,-759.28 849.837,-759.28 849.837,-765.28 843.837,-771.28 837.837,-771.28 837.837,-771.28 588.443,-771.28 588.443,-771.28 582.443,-771.28 576.443,-765.28 576.443,-759.28 576.443,-759.28 576.443,-365.68 576.443,-365.68 576.443,-359.68 582.443,-353.68 588.443,-353.68"/>
<text text-anchor="middle" x="713.14" y="-753.28" font-family="Times,serif" font-size="14.00">ApplicationController</text>
<polyline fill="none" stroke="black" points="576.443,-746.48 849.837,-746.48 "/>
<text text-anchor="start" x="584.443" y="-728.48" font-family="Times,serif" font-size="14.00">_one_time_conditions_valid_88?</text>
<text text-anchor="start" x="584.443" y="-711.68" font-family="Times,serif" font-size="14.00">_one_time_conditions_valid_90?</text>
<text text-anchor="start" x="584.443" y="-694.88" font-family="Times,serif" font-size="14.00">_one_time_conditions_valid_92?</text>
<text text-anchor="start" x="584.443" y="-678.08" font-family="Times,serif" font-size="14.00">add_account</text>
<text text-anchor="start" x="584.443" y="-661.28" font-family="Times,serif" font-size="14.00">api_call</text>
<text text-anchor="start" x="584.443" y="-644.48" font-family="Times,serif" font-size="14.00">create_poi</text>
<text text-anchor="start" x="584.443" y="-627.68" font-family="Times,serif" font-size="14.00">get_likes</text>
<text text-anchor="start" x="584.443" y="-610.88" font-family="Times,serif" font-size="14.00">import_pois_from_foursquare</text>
<text text-anchor="start" x="584.443" y="-594.08" font-family="Times,serif" font-size="14.00">import_pois_from_minube</text>
<text text-anchor="start" x="584.443" y="-577.28" font-family="Times,serif" font-size="14.00">import_recommended_pois_from_foursquare</text>
<text text-anchor="start" x="584.443" y="-560.48" font-family="Times,serif" font-size="14.00">import_trending_topic_pois_from_foursquare</text>
<text text-anchor="start" x="584.443" y="-543.68" font-family="Times,serif" font-size="14.00">load_events_from_kulturklik</text>
<text text-anchor="start" x="584.443" y="-526.88" font-family="Times,serif" font-size="14.00">load_photos_from_poi</text>
<text text-anchor="start" x="584.443" y="-510.08" font-family="Times,serif" font-size="14.00">load_poi_from_forsquare</text>
<text text-anchor="start" x="584.443" y="-493.28" font-family="Times,serif" font-size="14.00">load_poi_from_minube</text>
<text text-anchor="start" x="584.443" y="-476.48" font-family="Times,serif" font-size="14.00">load_poi_tips</text>
<text text-anchor="start" x="584.443" y="-459.68" font-family="Times,serif" font-size="14.00">load_venue_photos_from_foursquare</text>
<text text-anchor="start" x="584.443" y="-442.88" font-family="Times,serif" font-size="14.00">load_venues_from_foursquare</text>
<text text-anchor="start" x="584.443" y="-426.08" font-family="Times,serif" font-size="14.00">poi_url</text>
<text text-anchor="start" x="584.443" y="-409.28" font-family="Times,serif" font-size="14.00">set_locale</text>
<polyline fill="none" stroke="black" points="576.443,-402.48 849.837,-402.48 "/>
<polyline fill="none" stroke="black" points="576.443,-378.48 849.837,-378.48 "/>
<text text-anchor="start" x="584.443" y="-360.48" font-family="Times,serif" font-size="14.00">_layout</text>
</g>
<!-- ExplorerController -->
<g id="node9" class="node"><title>ExplorerController</title>
<path fill="none" stroke="black" d="M715.896,-220.568C715.896,-220.568 814.42,-220.568 814.42,-220.568 820.42,-220.568 826.42,-226.568 826.42,-232.568 826.42,-232.568 826.42,-323.768 826.42,-323.768 826.42,-329.768 820.42,-335.768 814.42,-335.768 814.42,-335.768 715.896,-335.768 715.896,-335.768 709.896,-335.768 703.896,-329.768 703.896,-323.768 703.896,-323.768 703.896,-232.568 703.896,-232.568 703.896,-226.568 709.896,-220.568 715.896,-220.568"/>
<text text-anchor="middle" x="765.158" y="-317.768" font-family="Times,serif" font-size="14.00">ExplorerController</text>
<polyline fill="none" stroke="black" points="703.896,-310.968 826.42,-310.968 "/>
<text text-anchor="start" x="711.896" y="-292.968" font-family="Times,serif" font-size="14.00">events</text>
<text text-anchor="start" x="711.896" y="-276.168" font-family="Times,serif" font-size="14.00">places</text>
<polyline fill="none" stroke="black" points="703.896,-269.368 826.42,-269.368 "/>
<polyline fill="none" stroke="black" points="703.896,-245.368 826.42,-245.368 "/>
<text text-anchor="start" x="711.896" y="-227.368" font-family="Times,serif" font-size="14.00">_layout</text>
</g>
<!-- ApplicationController&#45;&gt;ExplorerController -->
<g id="edge1" class="edge"><title>ApplicationController&#45;&gt;ExplorerController</title>
<path fill="none" stroke="black" d="M751.355,-353.612C752.461,-347.567 753.529,-341.731 754.547,-336.163"/>
</g>
<!-- FriendshipsController -->
<g id="node10" class="node"><title>FriendshipsController</title>
<path fill="none" stroke="black" d="M355.597,-216.5C355.597,-216.5 470.48,-216.5 470.48,-216.5 476.48,-216.5 482.48,-222.5 482.48,-228.5 482.48,-228.5 482.48,-319.7 482.48,-319.7 482.48,-325.7 476.48,-331.7 470.48,-331.7 470.48,-331.7 355.597,-331.7 355.597,-331.7 349.597,-331.7 343.597,-325.7 343.597,-319.7 343.597,-319.7 343.597,-228.5 343.597,-228.5 343.597,-222.5 349.597,-216.5 355.597,-216.5"/>
<text text-anchor="middle" x="413.038" y="-313.7" font-family="Times,serif" font-size="14.00">FriendshipsController</text>
<polyline fill="none" stroke="black" points="343.597,-306.9 482.48,-306.9 "/>
<text text-anchor="start" x="351.597" y="-288.9" font-family="Times,serif" font-size="14.00">create</text>
<text text-anchor="start" x="351.597" y="-272.1" font-family="Times,serif" font-size="14.00">destroy</text>
<polyline fill="none" stroke="black" points="343.597,-265.3 482.48,-265.3 "/>
<polyline fill="none" stroke="black" points="343.597,-241.3 482.48,-241.3 "/>
<text text-anchor="start" x="351.597" y="-223.3" font-family="Times,serif" font-size="14.00">_layout</text>
</g>
<!-- ApplicationController&#45;&gt;FriendshipsController -->
<g id="edge2" class="edge"><title>ApplicationController&#45;&gt;FriendshipsController</title>
<path fill="none" stroke="black" d="M576.262,-430.948C540.089,-396.188 502.886,-360.439 473.151,-331.865"/>
</g>
<!-- PagesController -->
<g id="node14" class="node"><title>PagesController</title>
<path fill="none" stroke="black" d="M336,-532.604C336,-532.604 418.207,-532.604 418.207,-532.604 424.207,-532.604 430.207,-538.604 430.207,-544.604 430.207,-544.604 430.207,-618.204 430.207,-618.204 430.207,-624.204 424.207,-630.204 418.207,-630.204 418.207,-630.204 336,-630.204 336,-630.204 330,-630.204 324,-624.204 324,-618.204 324,-618.204 324,-544.604 324,-544.604 324,-538.604 330,-532.604 336,-532.604"/>
<text text-anchor="middle" x="377.104" y="-612.204" font-family="Times,serif" font-size="14.00">PagesController</text>
<polyline fill="none" stroke="black" points="324,-605.404 430.207,-605.404 "/>
<polyline fill="none" stroke="black" points="324,-581.404 430.207,-581.404 "/>
<polyline fill="none" stroke="black" points="324,-557.404 430.207,-557.404 "/>
<text text-anchor="start" x="332" y="-539.404" font-family="Times,serif" font-size="14.00">_layout</text>
</g>
<!-- ApplicationController&#45;&gt;PagesController -->
<g id="edge3" class="edge"><title>ApplicationController&#45;&gt;PagesController</title>
<path fill="none" stroke="black" d="M575.976,-570.204C524.799,-573.087 469.667,-576.191 430.461,-578.399"/>
</g>
<!-- RecommendationController -->
<g id="node20" class="node"><title>RecommendationController</title>
<path fill="none" stroke="black" d="M677.131,-792.566C677.131,-792.566 862.766,-792.566 862.766,-792.566 868.766,-792.566 874.766,-798.566 874.766,-804.566 874.766,-804.566 874.766,-895.766 874.766,-895.766 874.766,-901.766 868.766,-907.766 862.766,-907.766 862.766,-907.766 677.131,-907.766 677.131,-907.766 671.131,-907.766 665.131,-901.766 665.131,-895.766 665.131,-895.766 665.131,-804.566 665.131,-804.566 665.131,-798.566 671.131,-792.566 677.131,-792.566"/>
<text text-anchor="middle" x="769.949" y="-889.766" font-family="Times,serif" font-size="14.00">RecommendationController</text>
<polyline fill="none" stroke="black" points="665.131,-882.966 874.766,-882.966 "/>
<text text-anchor="start" x="673.131" y="-864.966" font-family="Times,serif" font-size="14.00">_one_time_conditions_valid_961?</text>
<text text-anchor="start" x="673.131" y="-848.166" font-family="Times,serif" font-size="14.00">index</text>
<polyline fill="none" stroke="black" points="665.131,-841.366 874.766,-841.366 "/>
<polyline fill="none" stroke="black" points="665.131,-817.366 874.766,-817.366 "/>
<text text-anchor="start" x="673.131" y="-799.366" font-family="Times,serif" font-size="14.00">_layout</text>
</g>
<!-- ApplicationController&#45;&gt;RecommendationController -->
<g id="edge4" class="edge"><title>ApplicationController&#45;&gt;RecommendationController</title>
<path fill="none" stroke="black" d="M754.426,-771.555C755.871,-778.875 757.26,-785.909 758.572,-792.554"/>
</g>
<!-- RetrievalController -->
<g id="node21" class="node"><title>RetrievalController</title>
<path fill="none" stroke="black" d="M370.865,-823.529C370.865,-823.529 471.721,-823.529 471.721,-823.529 477.721,-823.529 483.721,-829.529 483.721,-835.529 483.721,-835.529 483.721,-909.929 483.721,-909.929 483.721,-915.929 477.721,-921.929 471.721,-921.929 471.721,-921.929 370.865,-921.929 370.865,-921.929 364.865,-921.929 358.865,-915.929 358.865,-909.929 358.865,-909.929 358.865,-835.529 358.865,-835.529 358.865,-829.529 364.865,-823.529 370.865,-823.529"/>
<text text-anchor="middle" x="421.293" y="-903.929" font-family="Times,serif" font-size="14.00">RetrievalController</text>
<polyline fill="none" stroke="black" points="358.865,-897.129 483.721,-897.129 "/>
<text text-anchor="start" x="366.865" y="-879.129" font-family="Times,serif" font-size="14.00">retrieval</text>
<polyline fill="none" stroke="black" points="358.865,-872.329 483.721,-872.329 "/>
<polyline fill="none" stroke="black" points="358.865,-848.329 483.721,-848.329 "/>
<text text-anchor="start" x="366.865" y="-830.329" font-family="Times,serif" font-size="14.00">_layout</text>
</g>
<!-- ApplicationController&#45;&gt;RetrievalController -->
<g id="edge5" class="edge"><title>ApplicationController&#45;&gt;RetrievalController</title>
<path fill="none" stroke="black" d="M576.189,-708.066C537.091,-749.629 497.131,-792.109 467.593,-823.51"/>
</g>
<!-- AuthenticationsController -->
<g id="node3" class="node"><title>AuthenticationsController</title>
<path fill="none" stroke="black" d="M201,-972.5C201,-972.5 339.193,-972.5 339.193,-972.5 345.193,-972.5 351.193,-978.5 351.193,-984.5 351.193,-984.5 351.193,-1227.7 351.193,-1227.7 351.193,-1233.7 345.193,-1239.7 339.193,-1239.7 339.193,-1239.7 201,-1239.7 201,-1239.7 195,-1239.7 189,-1233.7 189,-1227.7 189,-1227.7 189,-984.5 189,-984.5 189,-978.5 195,-972.5 201,-972.5"/>
<text text-anchor="middle" x="270.097" y="-1221.7" font-family="Times,serif" font-size="14.00">AuthenticationsController</text>
<polyline fill="none" stroke="black" points="189,-1214.9 351.193,-1214.9 "/>
<text text-anchor="start" x="197" y="-1196.9" font-family="Times,serif" font-size="14.00">create</text>
<text text-anchor="start" x="197" y="-1180.1" font-family="Times,serif" font-size="14.00">destroy</text>
<text text-anchor="start" x="197" y="-1163.3" font-family="Times,serif" font-size="14.00">failure</text>
<text text-anchor="start" x="197" y="-1146.5" font-family="Times,serif" font-size="14.00">index</text>
<polyline fill="none" stroke="black" points="189,-1139.7 351.193,-1139.7 "/>
<text text-anchor="start" x="197" y="-1121.7" font-family="Times,serif" font-size="14.00">collection_path</text>
<text text-anchor="start" x="197" y="-1104.9" font-family="Times,serif" font-size="14.00">collection_url</text>
<text text-anchor="start" x="197" y="-1088.1" font-family="Times,serif" font-size="14.00">edit_resource_path</text>
<text text-anchor="start" x="197" y="-1071.3" font-family="Times,serif" font-size="14.00">edit_resource_url</text>
<text text-anchor="start" x="197" y="-1054.5" font-family="Times,serif" font-size="14.00">new_resource_path</text>
<text text-anchor="start" x="197" y="-1037.7" font-family="Times,serif" font-size="14.00">new_resource_url</text>
<text text-anchor="start" x="197" y="-1020.9" font-family="Times,serif" font-size="14.00">resource_path</text>
<text text-anchor="start" x="197" y="-1004.1" font-family="Times,serif" font-size="14.00">resource_url</text>
<polyline fill="none" stroke="black" points="189,-997.3 351.193,-997.3 "/>
<text text-anchor="start" x="197" y="-979.3" font-family="Times,serif" font-size="14.00">_layout</text>
</g>
<!-- CategoriesController -->
<g id="node4" class="node"><title>CategoriesController</title>
<path fill="none" stroke="black" d="M39,-567.5C39,-567.5 148.414,-567.5 148.414,-567.5 154.414,-567.5 160.414,-573.5 160.414,-579.5 160.414,-579.5 160.414,-789.1 160.414,-789.1 160.414,-795.1 154.414,-801.1 148.414,-801.1 148.414,-801.1 39,-801.1 39,-801.1 33,-801.1 27,-795.1 27,-789.1 27,-789.1 27,-579.5 27,-579.5 27,-573.5 33,-567.5 39,-567.5"/>
<text text-anchor="middle" x="93.707" y="-783.1" font-family="Times,serif" font-size="14.00">CategoriesController</text>
<polyline fill="none" stroke="black" points="27,-776.3 160.414,-776.3 "/>
<text text-anchor="start" x="35" y="-758.3" font-family="Times,serif" font-size="14.00">index</text>
<text text-anchor="start" x="35" y="-741.5" font-family="Times,serif" font-size="14.00">show</text>
<polyline fill="none" stroke="black" points="27,-734.7 160.414,-734.7 "/>
<text text-anchor="start" x="35" y="-716.7" font-family="Times,serif" font-size="14.00">collection_path</text>
<text text-anchor="start" x="35" y="-699.9" font-family="Times,serif" font-size="14.00">collection_url</text>
<text text-anchor="start" x="35" y="-683.1" font-family="Times,serif" font-size="14.00">edit_resource_path</text>
<text text-anchor="start" x="35" y="-666.3" font-family="Times,serif" font-size="14.00">edit_resource_url</text>
<text text-anchor="start" x="35" y="-649.5" font-family="Times,serif" font-size="14.00">new_resource_path</text>
<text text-anchor="start" x="35" y="-632.7" font-family="Times,serif" font-size="14.00">new_resource_url</text>
<text text-anchor="start" x="35" y="-615.9" font-family="Times,serif" font-size="14.00">resource_path</text>
<text text-anchor="start" x="35" y="-599.1" font-family="Times,serif" font-size="14.00">resource_url</text>
<polyline fill="none" stroke="black" points="27,-592.3 160.414,-592.3 "/>
<text text-anchor="start" x="35" y="-574.3" font-family="Times,serif" font-size="14.00">_layout</text>
</g>
<!-- CitiesController -->
<g id="node5" class="node"><title>CitiesController</title>
<path fill="none" stroke="black" d="M552,-81.5C552,-81.5 652.842,-81.5 652.842,-81.5 658.842,-81.5 664.842,-87.5 664.842,-93.5 664.842,-93.5 664.842,-303.1 664.842,-303.1 664.842,-309.1 658.842,-315.1 652.842,-315.1 652.842,-315.1 552,-315.1 552,-315.1 546,-315.1 540,-309.1 540,-303.1 540,-303.1 540,-93.5 540,-93.5 540,-87.5 546,-81.5 552,-81.5"/>
<text text-anchor="middle" x="602.421" y="-297.1" font-family="Times,serif" font-size="14.00">CitiesController</text>
<polyline fill="none" stroke="black" points="540,-290.3 664.842,-290.3 "/>
<text text-anchor="start" x="548" y="-272.3" font-family="Times,serif" font-size="14.00">index</text>
<text text-anchor="start" x="548" y="-255.5" font-family="Times,serif" font-size="14.00">show</text>
<polyline fill="none" stroke="black" points="540,-248.7 664.842,-248.7 "/>
<text text-anchor="start" x="548" y="-230.7" font-family="Times,serif" font-size="14.00">collection_path</text>
<text text-anchor="start" x="548" y="-213.9" font-family="Times,serif" font-size="14.00">collection_url</text>
<text text-anchor="start" x="548" y="-197.1" font-family="Times,serif" font-size="14.00">edit_resource_path</text>
<text text-anchor="start" x="548" y="-180.3" font-family="Times,serif" font-size="14.00">edit_resource_url</text>
<text text-anchor="start" x="548" y="-163.5" font-family="Times,serif" font-size="14.00">new_resource_path</text>
<text text-anchor="start" x="548" y="-146.7" font-family="Times,serif" font-size="14.00">new_resource_url</text>
<text text-anchor="start" x="548" y="-129.9" font-family="Times,serif" font-size="14.00">resource_path</text>
<text text-anchor="start" x="548" y="-113.1" font-family="Times,serif" font-size="14.00">resource_url</text>
<polyline fill="none" stroke="black" points="540,-106.3 664.842,-106.3 "/>
<text text-anchor="start" x="548" y="-88.3" font-family="Times,serif" font-size="14.00">_layout</text>
</g>
<!-- CommentsController -->
<g id="node6" class="node"><title>CommentsController</title>
<path fill="none" stroke="black" d="M957,-918.5C957,-918.5 1142.63,-918.5 1142.63,-918.5 1148.63,-918.5 1154.63,-924.5 1154.63,-930.5 1154.63,-930.5 1154.63,-1173.7 1154.63,-1173.7 1154.63,-1179.7 1148.63,-1185.7 1142.63,-1185.7 1142.63,-1185.7 957,-1185.7 957,-1185.7 951,-1185.7 945,-1179.7 945,-1173.7 945,-1173.7 945,-930.5 945,-930.5 945,-924.5 951,-918.5 957,-918.5"/>
<text text-anchor="middle" x="1049.82" y="-1167.7" font-family="Times,serif" font-size="14.00">CommentsController</text>
<polyline fill="none" stroke="black" points="945,-1160.9 1154.63,-1160.9 "/>
<text text-anchor="start" x="953" y="-1142.9" font-family="Times,serif" font-size="14.00">_one_time_conditions_valid_846?</text>
<text text-anchor="start" x="953" y="-1126.1" font-family="Times,serif" font-size="14.00">create</text>
<text text-anchor="start" x="953" y="-1109.3" font-family="Times,serif" font-size="14.00">index</text>
<text text-anchor="start" x="953" y="-1092.5" font-family="Times,serif" font-size="14.00">show</text>
<polyline fill="none" stroke="black" points="945,-1085.7 1154.63,-1085.7 "/>
<text text-anchor="start" x="953" y="-1067.7" font-family="Times,serif" font-size="14.00">collection_path</text>
<text text-anchor="start" x="953" y="-1050.9" font-family="Times,serif" font-size="14.00">collection_url</text>
<text text-anchor="start" x="953" y="-1034.1" font-family="Times,serif" font-size="14.00">edit_resource_path</text>
<text text-anchor="start" x="953" y="-1017.3" font-family="Times,serif" font-size="14.00">edit_resource_url</text>
<text text-anchor="start" x="953" y="-1000.5" font-family="Times,serif" font-size="14.00">new_resource_path</text>
<text text-anchor="start" x="953" y="-983.7" font-family="Times,serif" font-size="14.00">new_resource_url</text>
<text text-anchor="start" x="953" y="-966.9" font-family="Times,serif" font-size="14.00">resource_path</text>
<text text-anchor="start" x="953" y="-950.1" font-family="Times,serif" font-size="14.00">resource_url</text>
<polyline fill="none" stroke="black" points="945,-943.3 1154.63,-943.3 "/>
<text text-anchor="start" x="953" y="-925.3" font-family="Times,serif" font-size="14.00">_layout</text>
</g>
<!-- CountriesController -->
<g id="node7" class="node"><title>CountriesController</title>
<path fill="none" stroke="black" d="M12,-864.5C12,-864.5 115.986,-864.5 115.986,-864.5 121.986,-864.5 127.986,-870.5 127.986,-876.5 127.986,-876.5 127.986,-1069.3 127.986,-1069.3 127.986,-1075.3 121.986,-1081.3 115.986,-1081.3 115.986,-1081.3 12,-1081.3 12,-1081.3 6,-1081.3 0,-1075.3 0,-1069.3 0,-1069.3 0,-876.5 0,-876.5 0,-870.5 6,-864.5 12,-864.5"/>
<text text-anchor="middle" x="63.9932" y="-1063.3" font-family="Times,serif" font-size="14.00">CountriesController</text>
<polyline fill="none" stroke="black" points="0,-1056.5 127.986,-1056.5 "/>
<text text-anchor="start" x="8" y="-1038.5" font-family="Times,serif" font-size="14.00">index</text>
<polyline fill="none" stroke="black" points="0,-1031.7 127.986,-1031.7 "/>
<text text-anchor="start" x="8" y="-1013.7" font-family="Times,serif" font-size="14.00">collection_path</text>
<text text-anchor="start" x="8" y="-996.9" font-family="Times,serif" font-size="14.00">collection_url</text>
<text text-anchor="start" x="8" y="-980.1" font-family="Times,serif" font-size="14.00">edit_resource_path</text>
<text text-anchor="start" x="8" y="-963.3" font-family="Times,serif" font-size="14.00">edit_resource_url</text>
<text text-anchor="start" x="8" y="-946.5" font-family="Times,serif" font-size="14.00">new_resource_path</text>
<text text-anchor="start" x="8" y="-929.7" font-family="Times,serif" font-size="14.00">new_resource_url</text>
<text text-anchor="start" x="8" y="-912.9" font-family="Times,serif" font-size="14.00">resource_path</text>
<text text-anchor="start" x="8" y="-896.1" font-family="Times,serif" font-size="14.00">resource_url</text>
<polyline fill="none" stroke="black" points="0,-889.3 127.986,-889.3 "/>
<text text-anchor="start" x="8" y="-871.3" font-family="Times,serif" font-size="14.00">_layout</text>
</g>
<!-- EventsController -->
<g id="node8" class="node"><title>EventsController</title>
<path fill="none" stroke="black" d="M39,-270.5C39,-270.5 139.842,-270.5 139.842,-270.5 145.842,-270.5 151.842,-276.5 151.842,-282.5 151.842,-282.5 151.842,-508.9 151.842,-508.9 151.842,-514.9 145.842,-520.9 139.842,-520.9 139.842,-520.9 39,-520.9 39,-520.9 33,-520.9 27,-514.9 27,-508.9 27,-508.9 27,-282.5 27,-282.5 27,-276.5 33,-270.5 39,-270.5"/>
<text text-anchor="middle" x="89.4209" y="-502.9" font-family="Times,serif" font-size="14.00">EventsController</text>
<polyline fill="none" stroke="black" points="27,-496.1 151.842,-496.1 "/>
<text text-anchor="start" x="35" y="-478.1" font-family="Times,serif" font-size="14.00">create</text>
<text text-anchor="start" x="35" y="-461.3" font-family="Times,serif" font-size="14.00">index</text>
<text text-anchor="start" x="35" y="-444.5" font-family="Times,serif" font-size="14.00">show</text>
<polyline fill="none" stroke="black" points="27,-437.7 151.842,-437.7 "/>
<text text-anchor="start" x="35" y="-419.7" font-family="Times,serif" font-size="14.00">collection_path</text>
<text text-anchor="start" x="35" y="-402.9" font-family="Times,serif" font-size="14.00">collection_url</text>
<text text-anchor="start" x="35" y="-386.1" font-family="Times,serif" font-size="14.00">edit_resource_path</text>
<text text-anchor="start" x="35" y="-369.3" font-family="Times,serif" font-size="14.00">edit_resource_url</text>
<text text-anchor="start" x="35" y="-352.5" font-family="Times,serif" font-size="14.00">new_resource_path</text>
<text text-anchor="start" x="35" y="-335.7" font-family="Times,serif" font-size="14.00">new_resource_url</text>
<text text-anchor="start" x="35" y="-318.9" font-family="Times,serif" font-size="14.00">resource_path</text>
<text text-anchor="start" x="35" y="-302.1" font-family="Times,serif" font-size="14.00">resource_url</text>
<polyline fill="none" stroke="black" points="27,-295.3 151.842,-295.3 "/>
<text text-anchor="start" x="35" y="-277.3" font-family="Times,serif" font-size="14.00">_layout</text>
</g>
<!-- LikesController -->
<g id="node11" class="node"><title>LikesController</title>
<path fill="none" stroke="black" d="M417,-972.5C417,-972.5 602.635,-972.5 602.635,-972.5 608.635,-972.5 614.635,-978.5 614.635,-984.5 614.635,-984.5 614.635,-1194.1 614.635,-1194.1 614.635,-1200.1 608.635,-1206.1 602.635,-1206.1 602.635,-1206.1 417,-1206.1 417,-1206.1 411,-1206.1 405,-1200.1 405,-1194.1 405,-1194.1 405,-984.5 405,-984.5 405,-978.5 411,-972.5 417,-972.5"/>
<text text-anchor="middle" x="509.817" y="-1188.1" font-family="Times,serif" font-size="14.00">LikesController</text>
<polyline fill="none" stroke="black" points="405,-1181.3 614.635,-1181.3 "/>
<text text-anchor="start" x="413" y="-1163.3" font-family="Times,serif" font-size="14.00">_one_time_conditions_valid_881?</text>
<text text-anchor="start" x="413" y="-1146.5" font-family="Times,serif" font-size="14.00">index</text>
<polyline fill="none" stroke="black" points="405,-1139.7 614.635,-1139.7 "/>
<text text-anchor="start" x="413" y="-1121.7" font-family="Times,serif" font-size="14.00">collection_path</text>
<text text-anchor="start" x="413" y="-1104.9" font-family="Times,serif" font-size="14.00">collection_url</text>
<text text-anchor="start" x="413" y="-1088.1" font-family="Times,serif" font-size="14.00">edit_resource_path</text>
<text text-anchor="start" x="413" y="-1071.3" font-family="Times,serif" font-size="14.00">edit_resource_url</text>
<text text-anchor="start" x="413" y="-1054.5" font-family="Times,serif" font-size="14.00">new_resource_path</text>
<text text-anchor="start" x="413" y="-1037.7" font-family="Times,serif" font-size="14.00">new_resource_url</text>
<text text-anchor="start" x="413" y="-1020.9" font-family="Times,serif" font-size="14.00">resource_path</text>
<text text-anchor="start" x="413" y="-1004.1" font-family="Times,serif" font-size="14.00">resource_url</text>
<polyline fill="none" stroke="black" points="405,-997.3 614.635,-997.3 "/>
<text text-anchor="start" x="413" y="-979.3" font-family="Times,serif" font-size="14.00">_layout</text>
</g>
<!-- ListsController -->
<g id="node12" class="node"><title>ListsController</title>
<path fill="none" stroke="black" d="M201,-216.5C201,-216.5 301.842,-216.5 301.842,-216.5 307.842,-216.5 313.842,-222.5 313.842,-228.5 313.842,-228.5 313.842,-471.7 313.842,-471.7 313.842,-477.7 307.842,-483.7 301.842,-483.7 301.842,-483.7 201,-483.7 201,-483.7 195,-483.7 189,-477.7 189,-471.7 189,-471.7 189,-228.5 189,-228.5 189,-222.5 195,-216.5 201,-216.5"/>
<text text-anchor="middle" x="251.421" y="-465.7" font-family="Times,serif" font-size="14.00">ListsController</text>
<polyline fill="none" stroke="black" points="189,-458.9 313.842,-458.9 "/>
<text text-anchor="start" x="197" y="-440.9" font-family="Times,serif" font-size="14.00">create</text>
<text text-anchor="start" x="197" y="-424.1" font-family="Times,serif" font-size="14.00">index</text>
<text text-anchor="start" x="197" y="-407.3" font-family="Times,serif" font-size="14.00">new</text>
<text text-anchor="start" x="197" y="-390.5" font-family="Times,serif" font-size="14.00">show</text>
<polyline fill="none" stroke="black" points="189,-383.7 313.842,-383.7 "/>
<text text-anchor="start" x="197" y="-365.7" font-family="Times,serif" font-size="14.00">collection_path</text>
<text text-anchor="start" x="197" y="-348.9" font-family="Times,serif" font-size="14.00">collection_url</text>
<text text-anchor="start" x="197" y="-332.1" font-family="Times,serif" font-size="14.00">edit_resource_path</text>
<text text-anchor="start" x="197" y="-315.3" font-family="Times,serif" font-size="14.00">edit_resource_url</text>
<text text-anchor="start" x="197" y="-298.5" font-family="Times,serif" font-size="14.00">new_resource_path</text>
<text text-anchor="start" x="197" y="-281.7" font-family="Times,serif" font-size="14.00">new_resource_url</text>
<text text-anchor="start" x="197" y="-264.9" font-family="Times,serif" font-size="14.00">resource_path</text>
<text text-anchor="start" x="197" y="-248.1" font-family="Times,serif" font-size="14.00">resource_url</text>
<polyline fill="none" stroke="black" points="189,-241.3 313.842,-241.3 "/>
<text text-anchor="start" x="197" y="-223.3" font-family="Times,serif" font-size="14.00">_layout</text>
</g>
<!-- PackagesController -->
<g id="node13" class="node"><title>PackagesController</title>
<path fill="none" stroke="black" d="M228,-675.5C228,-675.5 329.635,-675.5 329.635,-675.5 335.635,-675.5 341.635,-681.5 341.635,-687.5 341.635,-687.5 341.635,-913.9 341.635,-913.9 341.635,-919.9 335.635,-925.9 329.635,-925.9 329.635,-925.9 228,-925.9 228,-925.9 222,-925.9 216,-919.9 216,-913.9 216,-913.9 216,-687.5 216,-687.5 216,-681.5 222,-675.5 228,-675.5"/>
<text text-anchor="middle" x="278.817" y="-907.9" font-family="Times,serif" font-size="14.00">PackagesController</text>
<polyline fill="none" stroke="black" points="216,-901.1 341.635,-901.1 "/>
<text text-anchor="start" x="224" y="-883.1" font-family="Times,serif" font-size="14.00">create_package</text>
<text text-anchor="start" x="224" y="-866.3" font-family="Times,serif" font-size="14.00">index</text>
<text text-anchor="start" x="224" y="-849.5" font-family="Times,serif" font-size="14.00">show</text>
<polyline fill="none" stroke="black" points="216,-842.7 341.635,-842.7 "/>
<text text-anchor="start" x="224" y="-824.7" font-family="Times,serif" font-size="14.00">collection_path</text>
<text text-anchor="start" x="224" y="-807.9" font-family="Times,serif" font-size="14.00">collection_url</text>
<text text-anchor="start" x="224" y="-791.1" font-family="Times,serif" font-size="14.00">edit_resource_path</text>
<text text-anchor="start" x="224" y="-774.3" font-family="Times,serif" font-size="14.00">edit_resource_url</text>
<text text-anchor="start" x="224" y="-757.5" font-family="Times,serif" font-size="14.00">new_resource_path</text>
<text text-anchor="start" x="224" y="-740.7" font-family="Times,serif" font-size="14.00">new_resource_url</text>
<text text-anchor="start" x="224" y="-723.9" font-family="Times,serif" font-size="14.00">resource_path</text>
<text text-anchor="start" x="224" y="-707.1" font-family="Times,serif" font-size="14.00">resource_url</text>
<polyline fill="none" stroke="black" points="216,-700.3 341.635,-700.3 "/>
<text text-anchor="start" x="224" y="-682.3" font-family="Times,serif" font-size="14.00">_layout</text>
</g>
<!-- PhotosController -->
<g id="node15" class="node"><title>PhotosController</title>
<path fill="none" stroke="black" d="M903,-270.5C903,-270.5 1088.63,-270.5 1088.63,-270.5 1094.63,-270.5 1100.63,-276.5 1100.63,-282.5 1100.63,-282.5 1100.63,-542.5 1100.63,-542.5 1100.63,-548.5 1094.63,-554.5 1088.63,-554.5 1088.63,-554.5 903,-554.5 903,-554.5 897,-554.5 891,-548.5 891,-542.5 891,-542.5 891,-282.5 891,-282.5 891,-276.5 897,-270.5 903,-270.5"/>
<text text-anchor="middle" x="995.817" y="-536.5" font-family="Times,serif" font-size="14.00">PhotosController</text>
<polyline fill="none" stroke="black" points="891,-529.7 1100.63,-529.7 "/>
<text text-anchor="start" x="899" y="-511.7" font-family="Times,serif" font-size="14.00">_one_time_conditions_valid_933?</text>
<text text-anchor="start" x="899" y="-494.9" font-family="Times,serif" font-size="14.00">create</text>
<text text-anchor="start" x="899" y="-478.1" font-family="Times,serif" font-size="14.00">index</text>
<text text-anchor="start" x="899" y="-461.3" font-family="Times,serif" font-size="14.00">new</text>
<text text-anchor="start" x="899" y="-444.5" font-family="Times,serif" font-size="14.00">show</text>
<polyline fill="none" stroke="black" points="891,-437.7 1100.63,-437.7 "/>
<text text-anchor="start" x="899" y="-419.7" font-family="Times,serif" font-size="14.00">collection_path</text>
<text text-anchor="start" x="899" y="-402.9" font-family="Times,serif" font-size="14.00">collection_url</text>
<text text-anchor="start" x="899" y="-386.1" font-family="Times,serif" font-size="14.00">edit_resource_path</text>
<text text-anchor="start" x="899" y="-369.3" font-family="Times,serif" font-size="14.00">edit_resource_url</text>
<text text-anchor="start" x="899" y="-352.5" font-family="Times,serif" font-size="14.00">new_resource_path</text>
<text text-anchor="start" x="899" y="-335.7" font-family="Times,serif" font-size="14.00">new_resource_url</text>
<text text-anchor="start" x="899" y="-318.9" font-family="Times,serif" font-size="14.00">resource_path</text>
<text text-anchor="start" x="899" y="-302.1" font-family="Times,serif" font-size="14.00">resource_url</text>
<polyline fill="none" stroke="black" points="891,-295.3 1100.63,-295.3 "/>
<text text-anchor="start" x="899" y="-277.3" font-family="Times,serif" font-size="14.00">_layout</text>
</g>
<!-- PoisController -->
<g id="node16" class="node"><title>PoisController</title>
<path fill="none" stroke="black" d="M687,-945.5C687,-945.5 872.635,-945.5 872.635,-945.5 878.635,-945.5 884.635,-951.5 884.635,-957.5 884.635,-957.5 884.635,-1200.7 884.635,-1200.7 884.635,-1206.7 878.635,-1212.7 872.635,-1212.7 872.635,-1212.7 687,-1212.7 687,-1212.7 681,-1212.7 675,-1206.7 675,-1200.7 675,-1200.7 675,-957.5 675,-957.5 675,-951.5 681,-945.5 687,-945.5"/>
<text text-anchor="middle" x="779.817" y="-1194.7" font-family="Times,serif" font-size="14.00">PoisController</text>
<polyline fill="none" stroke="black" points="675,-1187.9 884.635,-1187.9 "/>
<text text-anchor="start" x="683" y="-1169.9" font-family="Times,serif" font-size="14.00">_one_time_conditions_valid_937?</text>
<text text-anchor="start" x="683" y="-1153.1" font-family="Times,serif" font-size="14.00">crawler</text>
<text text-anchor="start" x="683" y="-1136.3" font-family="Times,serif" font-size="14.00">index</text>
<text text-anchor="start" x="683" y="-1119.5" font-family="Times,serif" font-size="14.00">show</text>
<polyline fill="none" stroke="black" points="675,-1112.7 884.635,-1112.7 "/>
<text text-anchor="start" x="683" y="-1094.7" font-family="Times,serif" font-size="14.00">collection_path</text>
<text text-anchor="start" x="683" y="-1077.9" font-family="Times,serif" font-size="14.00">collection_url</text>
<text text-anchor="start" x="683" y="-1061.1" font-family="Times,serif" font-size="14.00">edit_resource_path</text>
<text text-anchor="start" x="683" y="-1044.3" font-family="Times,serif" font-size="14.00">edit_resource_url</text>
<text text-anchor="start" x="683" y="-1027.5" font-family="Times,serif" font-size="14.00">new_resource_path</text>
<text text-anchor="start" x="683" y="-1010.7" font-family="Times,serif" font-size="14.00">new_resource_url</text>
<text text-anchor="start" x="683" y="-993.9" font-family="Times,serif" font-size="14.00">resource_path</text>
<text text-anchor="start" x="683" y="-977.1" font-family="Times,serif" font-size="14.00">resource_url</text>
<polyline fill="none" stroke="black" points="675,-970.3 884.635,-970.3 "/>
<text text-anchor="start" x="683" y="-952.3" font-family="Times,serif" font-size="14.00">_layout</text>
</g>
<!-- ProfilesController -->
<g id="node17" class="node"><title>ProfilesController</title>
<path fill="none" stroke="black" d="M39,-1134.5C39,-1134.5 139.842,-1134.5 139.842,-1134.5 145.842,-1134.5 151.842,-1140.5 151.842,-1146.5 151.842,-1146.5 151.842,-1338.5 151.842,-1338.5 151.842,-1344.5 145.842,-1350.5 139.842,-1350.5 139.842,-1350.5 39,-1350.5 39,-1350.5 33,-1350.5 27,-1344.5 27,-1338.5 27,-1338.5 27,-1146.5 27,-1146.5 27,-1140.5 33,-1134.5 39,-1134.5"/>
<text text-anchor="middle" x="89.4209" y="-1332.5" font-family="Times,serif" font-size="14.00">ProfilesController</text>
<polyline fill="none" stroke="black" points="27,-1325.7 151.842,-1325.7 "/>
<polyline fill="none" stroke="black" points="27,-1301.7 151.842,-1301.7 "/>
<text text-anchor="start" x="35" y="-1283.7" font-family="Times,serif" font-size="14.00">collection_path</text>
<text text-anchor="start" x="35" y="-1266.9" font-family="Times,serif" font-size="14.00">collection_url</text>
<text text-anchor="start" x="35" y="-1250.1" font-family="Times,serif" font-size="14.00">edit_resource_path</text>
<text text-anchor="start" x="35" y="-1233.3" font-family="Times,serif" font-size="14.00">edit_resource_url</text>
<text text-anchor="start" x="35" y="-1216.5" font-family="Times,serif" font-size="14.00">new_resource_path</text>
<text text-anchor="start" x="35" y="-1199.7" font-family="Times,serif" font-size="14.00">new_resource_url</text>
<text text-anchor="start" x="35" y="-1182.9" font-family="Times,serif" font-size="14.00">resource_path</text>
<text text-anchor="start" x="35" y="-1166.1" font-family="Times,serif" font-size="14.00">resource_url</text>
<polyline fill="none" stroke="black" points="27,-1159.3 151.842,-1159.3 "/>
<text text-anchor="start" x="35" y="-1141.3" font-family="Times,serif" font-size="14.00">_layout</text>
</g>
<!-- ProvidersController -->
<g id="node18" class="node"><title>ProvidersController</title>
<path fill="none" stroke="black" d="M1173,-270.5C1173,-270.5 1276.21,-270.5 1276.21,-270.5 1282.21,-270.5 1288.21,-276.5 1288.21,-282.5 1288.21,-282.5 1288.21,-474.5 1288.21,-474.5 1288.21,-480.5 1282.21,-486.5 1276.21,-486.5 1276.21,-486.5 1173,-486.5 1173,-486.5 1167,-486.5 1161,-480.5 1161,-474.5 1161,-474.5 1161,-282.5 1161,-282.5 1161,-276.5 1167,-270.5 1173,-270.5"/>
<text text-anchor="middle" x="1224.6" y="-468.5" font-family="Times,serif" font-size="14.00">ProvidersController</text>
<polyline fill="none" stroke="black" points="1161,-461.7 1288.21,-461.7 "/>
<polyline fill="none" stroke="black" points="1161,-437.7 1288.21,-437.7 "/>
<text text-anchor="start" x="1169" y="-419.7" font-family="Times,serif" font-size="14.00">collection_path</text>
<text text-anchor="start" x="1169" y="-402.9" font-family="Times,serif" font-size="14.00">collection_url</text>
<text text-anchor="start" x="1169" y="-386.1" font-family="Times,serif" font-size="14.00">edit_resource_path</text>
<text text-anchor="start" x="1169" y="-369.3" font-family="Times,serif" font-size="14.00">edit_resource_url</text>
<text text-anchor="start" x="1169" y="-352.5" font-family="Times,serif" font-size="14.00">new_resource_path</text>
<text text-anchor="start" x="1169" y="-335.7" font-family="Times,serif" font-size="14.00">new_resource_url</text>
<text text-anchor="start" x="1169" y="-318.9" font-family="Times,serif" font-size="14.00">resource_path</text>
<text text-anchor="start" x="1169" y="-302.1" font-family="Times,serif" font-size="14.00">resource_url</text>
<polyline fill="none" stroke="black" points="1161,-295.3 1288.21,-295.3 "/>
<text text-anchor="start" x="1169" y="-277.3" font-family="Times,serif" font-size="14.00">_layout</text>
</g>
<!-- RatingsController -->
<g id="node19" class="node"><title>RatingsController</title>
<path fill="none" stroke="black" d="M39,-0.5C39,-0.5 139.842,-0.5 139.842,-0.5 145.842,-0.5 151.842,-6.5 151.842,-12.5 151.842,-12.5 151.842,-205.3 151.842,-205.3 151.842,-211.3 145.842,-217.3 139.842,-217.3 139.842,-217.3 39,-217.3 39,-217.3 33,-217.3 27,-211.3 27,-205.3 27,-205.3 27,-12.5 27,-12.5 27,-6.5 33,-0.5 39,-0.5"/>
<text text-anchor="middle" x="89.4209" y="-199.3" font-family="Times,serif" font-size="14.00">RatingsController</text>
<polyline fill="none" stroke="black" points="27,-192.5 151.842,-192.5 "/>
<text text-anchor="start" x="35" y="-174.5" font-family="Times,serif" font-size="14.00">create</text>
<polyline fill="none" stroke="black" points="27,-167.7 151.842,-167.7 "/>
<text text-anchor="start" x="35" y="-149.7" font-family="Times,serif" font-size="14.00">collection_path</text>
<text text-anchor="start" x="35" y="-132.9" font-family="Times,serif" font-size="14.00">collection_url</text>
<text text-anchor="start" x="35" y="-116.1" font-family="Times,serif" font-size="14.00">edit_resource_path</text>
<text text-anchor="start" x="35" y="-99.3" font-family="Times,serif" font-size="14.00">edit_resource_url</text>
<text text-anchor="start" x="35" y="-82.5" font-family="Times,serif" font-size="14.00">new_resource_path</text>
<text text-anchor="start" x="35" y="-65.7" font-family="Times,serif" font-size="14.00">new_resource_url</text>
<text text-anchor="start" x="35" y="-48.9" font-family="Times,serif" font-size="14.00">resource_path</text>
<text text-anchor="start" x="35" y="-32.1" font-family="Times,serif" font-size="14.00">resource_url</text>
<polyline fill="none" stroke="black" points="27,-25.3 151.842,-25.3 "/>
<text text-anchor="start" x="35" y="-7.3" font-family="Times,serif" font-size="14.00">_layout</text>
</g>
<!-- RouteInfosController -->
<g id="node22" class="node"><title>RouteInfosController</title>
<path fill="none" stroke="black" d="M1092,-0.5C1092,-0.5 1203.76,-0.5 1203.76,-0.5 1209.76,-0.5 1215.76,-6.5 1215.76,-12.5 1215.76,-12.5 1215.76,-204.5 1215.76,-204.5 1215.76,-210.5 1209.76,-216.5 1203.76,-216.5 1203.76,-216.5 1092,-216.5 1092,-216.5 1086,-216.5 1080,-210.5 1080,-204.5 1080,-204.5 1080,-12.5 1080,-12.5 1080,-6.5 1086,-0.5 1092,-0.5"/>
<text text-anchor="middle" x="1147.88" y="-198.5" font-family="Times,serif" font-size="14.00">RouteInfosController</text>
<polyline fill="none" stroke="black" points="1080,-191.7 1215.76,-191.7 "/>
<polyline fill="none" stroke="black" points="1080,-167.7 1215.76,-167.7 "/>
<text text-anchor="start" x="1088" y="-149.7" font-family="Times,serif" font-size="14.00">collection_path</text>
<text text-anchor="start" x="1088" y="-132.9" font-family="Times,serif" font-size="14.00">collection_url</text>
<text text-anchor="start" x="1088" y="-116.1" font-family="Times,serif" font-size="14.00">edit_resource_path</text>
<text text-anchor="start" x="1088" y="-99.3" font-family="Times,serif" font-size="14.00">edit_resource_url</text>
<text text-anchor="start" x="1088" y="-82.5" font-family="Times,serif" font-size="14.00">new_resource_path</text>
<text text-anchor="start" x="1088" y="-65.7" font-family="Times,serif" font-size="14.00">new_resource_url</text>
<text text-anchor="start" x="1088" y="-48.9" font-family="Times,serif" font-size="14.00">resource_path</text>
<text text-anchor="start" x="1088" y="-32.1" font-family="Times,serif" font-size="14.00">resource_url</text>
<polyline fill="none" stroke="black" points="1080,-25.3 1215.76,-25.3 "/>
<text text-anchor="start" x="1088" y="-7.3" font-family="Times,serif" font-size="14.00">_layout</text>
</g>
<!-- RoutePointsController -->
<g id="node23" class="node"><title>RoutePointsController</title>
<path fill="none" stroke="black" d="M1200,-540.5C1200,-540.5 1318,-540.5 1318,-540.5 1324,-540.5 1330,-546.5 1330,-552.5 1330,-552.5 1330,-744.5 1330,-744.5 1330,-750.5 1324,-756.5 1318,-756.5 1318,-756.5 1200,-756.5 1200,-756.5 1194,-756.5 1188,-750.5 1188,-744.5 1188,-744.5 1188,-552.5 1188,-552.5 1188,-546.5 1194,-540.5 1200,-540.5"/>
<text text-anchor="middle" x="1259" y="-738.5" font-family="Times,serif" font-size="14.00">RoutePointsController</text>
<polyline fill="none" stroke="black" points="1188,-731.7 1330,-731.7 "/>
<polyline fill="none" stroke="black" points="1188,-707.7 1330,-707.7 "/>
<text text-anchor="start" x="1196" y="-689.7" font-family="Times,serif" font-size="14.00">collection_path</text>
<text text-anchor="start" x="1196" y="-672.9" font-family="Times,serif" font-size="14.00">collection_url</text>
<text text-anchor="start" x="1196" y="-656.1" font-family="Times,serif" font-size="14.00">edit_resource_path</text>
<text text-anchor="start" x="1196" y="-639.3" font-family="Times,serif" font-size="14.00">edit_resource_url</text>
<text text-anchor="start" x="1196" y="-622.5" font-family="Times,serif" font-size="14.00">new_resource_path</text>
<text text-anchor="start" x="1196" y="-605.7" font-family="Times,serif" font-size="14.00">new_resource_url</text>
<text text-anchor="start" x="1196" y="-588.9" font-family="Times,serif" font-size="14.00">resource_path</text>
<text text-anchor="start" x="1196" y="-572.1" font-family="Times,serif" font-size="14.00">resource_url</text>
<polyline fill="none" stroke="black" points="1188,-565.3 1330,-565.3 "/>
<text text-anchor="start" x="1196" y="-547.3" font-family="Times,serif" font-size="14.00">_layout</text>
</g>
<!-- SupercategoriesController -->
<g id="node24" class="node"><title>SupercategoriesController</title>
<path fill="none" stroke="black" d="M876,-0.5C876,-0.5 1014.95,-0.5 1014.95,-0.5 1020.95,-0.5 1026.95,-6.5 1026.95,-12.5 1026.95,-12.5 1026.95,-204.5 1026.95,-204.5 1026.95,-210.5 1020.95,-216.5 1014.95,-216.5 1014.95,-216.5 876,-216.5 876,-216.5 870,-216.5 864,-210.5 864,-204.5 864,-204.5 864,-12.5 864,-12.5 864,-6.5 870,-0.5 876,-0.5"/>
<text text-anchor="middle" x="945.476" y="-198.5" font-family="Times,serif" font-size="14.00">SupercategoriesController</text>
<polyline fill="none" stroke="black" points="864,-191.7 1026.95,-191.7 "/>
<polyline fill="none" stroke="black" points="864,-167.7 1026.95,-167.7 "/>
<text text-anchor="start" x="872" y="-149.7" font-family="Times,serif" font-size="14.00">collection_path</text>
<text text-anchor="start" x="872" y="-132.9" font-family="Times,serif" font-size="14.00">collection_url</text>
<text text-anchor="start" x="872" y="-116.1" font-family="Times,serif" font-size="14.00">edit_resource_path</text>
<text text-anchor="start" x="872" y="-99.3" font-family="Times,serif" font-size="14.00">edit_resource_url</text>
<text text-anchor="start" x="872" y="-82.5" font-family="Times,serif" font-size="14.00">new_resource_path</text>
<text text-anchor="start" x="872" y="-65.7" font-family="Times,serif" font-size="14.00">new_resource_url</text>
<text text-anchor="start" x="872" y="-48.9" font-family="Times,serif" font-size="14.00">resource_path</text>
<text text-anchor="start" x="872" y="-32.1" font-family="Times,serif" font-size="14.00">resource_url</text>
<polyline fill="none" stroke="black" points="864,-25.3 1026.95,-25.3 "/>
<text text-anchor="start" x="872" y="-7.3" font-family="Times,serif" font-size="14.00">_layout</text>
</g>
<!-- UsersController -->
<g id="node25" class="node"><title>UsersController</title>
<path fill="none" stroke="black" d="M930,-594.5C930,-594.5 1115.63,-594.5 1115.63,-594.5 1121.63,-594.5 1127.63,-600.5 1127.63,-606.5 1127.63,-606.5 1127.63,-866.5 1127.63,-866.5 1127.63,-872.5 1121.63,-878.5 1115.63,-878.5 1115.63,-878.5 930,-878.5 930,-878.5 924,-878.5 918,-872.5 918,-866.5 918,-866.5 918,-606.5 918,-606.5 918,-600.5 924,-594.5 930,-594.5"/>
<text text-anchor="middle" x="1022.82" y="-860.5" font-family="Times,serif" font-size="14.00">UsersController</text>
<polyline fill="none" stroke="black" points="918,-853.7 1127.63,-853.7 "/>
<text text-anchor="start" x="926" y="-835.7" font-family="Times,serif" font-size="14.00">_one_time_conditions_valid_973?</text>
<text text-anchor="start" x="926" y="-818.9" font-family="Times,serif" font-size="14.00">edit</text>
<text text-anchor="start" x="926" y="-802.1" font-family="Times,serif" font-size="14.00">facebook</text>
<text text-anchor="start" x="926" y="-785.3" font-family="Times,serif" font-size="14.00">index</text>
<text text-anchor="start" x="926" y="-768.5" font-family="Times,serif" font-size="14.00">show</text>
<polyline fill="none" stroke="black" points="918,-761.7 1127.63,-761.7 "/>
<text text-anchor="start" x="926" y="-743.7" font-family="Times,serif" font-size="14.00">collection_path</text>
<text text-anchor="start" x="926" y="-726.9" font-family="Times,serif" font-size="14.00">collection_url</text>
<text text-anchor="start" x="926" y="-710.1" font-family="Times,serif" font-size="14.00">edit_resource_path</text>
<text text-anchor="start" x="926" y="-693.3" font-family="Times,serif" font-size="14.00">edit_resource_url</text>
<text text-anchor="start" x="926" y="-676.5" font-family="Times,serif" font-size="14.00">new_resource_path</text>
<text text-anchor="start" x="926" y="-659.7" font-family="Times,serif" font-size="14.00">new_resource_url</text>
<text text-anchor="start" x="926" y="-642.9" font-family="Times,serif" font-size="14.00">resource_path</text>
<text text-anchor="start" x="926" y="-626.1" font-family="Times,serif" font-size="14.00">resource_url</text>
<polyline fill="none" stroke="black" points="918,-619.3 1127.63,-619.3 "/>
<text text-anchor="start" x="926" y="-601.3" font-family="Times,serif" font-size="14.00">_layout</text>
</g>
</g>
</svg>
