<?xml version="1.0" encoding="UTF-8" standalone="no"?>
<!DOCTYPE svg PUBLIC "-//W3C//DTD SVG 1.1//EN"
 "http://www.w3.org/Graphics/SVG/1.1/DTD/svg11.dtd">
<!-- Generated by graphviz version 2.30.1 (20130526.1459)
 -->
<!-- Title: models_diagram Pages: 1 -->
<svg width="2140pt" height="554pt"
 viewBox="0.00 0.00 2140.00 554.00" xmlns="http://www.w3.org/2000/svg" xmlns:xlink="http://www.w3.org/1999/xlink">
<g id="graph0" class="graph" transform="scale(1 1) rotate(0) translate(4 550)">
<title>models_diagram</title>
<polygon fill="white" stroke="white" points="-4,5 -4,-550 2137,-550 2137,5 -4,5"/>
<!-- _diagram_info -->
<g id="node1" class="node"><title>_diagram_info</title>
<text text-anchor="start" x="622.788" y="-529" font-family="Times,serif" font-size="13.00">Models diagram</text>
<text text-anchor="start" x="622.788" y="-513.4" font-family="Times,serif" font-size="13.00">Date: May 26 2013 &#45; 17:00</text>
<text text-anchor="start" x="622.788" y="-497.8" font-family="Times,serif" font-size="13.00">Migration version: 20130411105438</text>
<text text-anchor="start" x="622.788" y="-482.2" font-family="Times,serif" font-size="13.00">Generated by RailRoady 1.1.0</text>
<text text-anchor="start" x="622.788" y="-466.6" font-family="Times,serif" font-size="13.00">http://railroady.prestonlee.com</text>
</g>
<!-- AdminUser -->
<g id="node2" class="node"><title>AdminUser</title>
<ellipse fill="none" stroke="black" cx="895" cy="-503" rx="56.144" ry="18"/>
<text text-anchor="middle" x="895" y="-497.4" font-family="Times,serif" font-size="14.00">AdminUser</text>
</g>
<!-- ApiKey -->
<g id="node3" class="node"><title>ApiKey</title>
<ellipse fill="none" stroke="black" cx="1011" cy="-503" rx="41.4153" ry="18"/>
<text text-anchor="middle" x="1011" y="-497.4" font-family="Times,serif" font-size="14.00">ApiKey</text>
</g>
<!-- Authentication -->
<g id="node4" class="node"><title>Authentication</title>
<ellipse fill="none" stroke="black" cx="1898" cy="-240" rx="68.14" ry="18"/>
<text text-anchor="middle" x="1898" y="-234.4" font-family="Times,serif" font-size="14.00">Authentication</text>
</g>
<!-- Category -->
<g id="node5" class="node"><title>Category</title>
<ellipse fill="none" stroke="black" cx="647" cy="-240" rx="46.1519" ry="18"/>
<text text-anchor="middle" x="647" y="-234.4" font-family="Times,serif" font-size="14.00">Category</text>
</g>
<!-- Subcategory -->
<g id="node27" class="node"><title>Subcategory</title>
<ellipse fill="none" stroke="black" cx="552" cy="-166" rx="58.9618" ry="18"/>
<text text-anchor="middle" x="552" y="-160.4" font-family="Times,serif" font-size="14.00">Subcategory</text>
</g>
<!-- Category&#45;&gt;Subcategory -->
<g id="edge1" class="edge"><title>Category&#45;&gt;Subcategory</title>
<path fill="none" stroke="#dddf72" d="M620.264,-218.737C608.138,-209.547 593.765,-198.654 581.343,-189.239"/>
<ellipse fill="none" stroke="#dddf72" cx="623.665" cy="-221.315" rx="4.00002" ry="4.00002"/>
<polygon fill="#dddf72" stroke="#dddf72" points="581.075,-189.036 575.824,-179.41 577.091,-186.016 573.106,-182.996 573.106,-182.996 573.106,-182.996 577.091,-186.016 570.388,-186.582 581.075,-189.036 581.075,-189.036"/>
</g>
<!-- Poi -->
<g id="node21" class="node"><title>Poi</title>
<ellipse fill="none" stroke="black" cx="1030" cy="-92" rx="27" ry="18"/>
<text text-anchor="middle" x="1030" y="-86.4" font-family="Times,serif" font-size="14.00">Poi</text>
</g>
<!-- Category&#45;&gt;Poi -->
<g id="edge2" class="edge"><title>Category&#45;&gt;Poi</title>
<path fill="none" stroke="#94cc56" d="M693.005,-227.276C723.629,-218.241 763.966,-203.906 796,-184 815.76,-171.721 813.764,-159.478 834,-148 885.186,-118.966 952.703,-104.433 993.654,-97.8204"/>
<ellipse fill="none" stroke="#94cc56" cx="688.885" cy="-228.464" rx="4.00001" ry="4.00001"/>
<polygon fill="#94cc56" stroke="#94cc56" points="993.833,-97.7929 1004.4,-100.717 998.774,-97.0311 1003.72,-96.2692 1003.72,-96.2692 1003.72,-96.2692 998.774,-97.0311 1003.03,-91.8217 993.833,-97.7929 993.833,-97.7929"/>
</g>
<!-- CategoryMinube -->
<g id="node8" class="node"><title>CategoryMinube</title>
<ellipse fill="none" stroke="black" cx="919" cy="-166" rx="76.2133" ry="18"/>
<text text-anchor="middle" x="919" y="-160.4" font-family="Times,serif" font-size="14.00">CategoryMinube</text>
</g>
<!-- Category&#45;&gt;CategoryMinube -->
<g id="edge3" class="edge"><title>Category&#45;&gt;CategoryMinube</title>
<path fill="none" stroke="#183b69" d="M699.855,-231.7C736.543,-225.94 786.303,-216.742 829,-204 844.935,-199.244 861.923,-192.675 876.797,-186.391"/>
<polygon fill="#183b69" stroke="#183b69" points="699.755,-231.716 689.187,-228.786 694.813,-232.475 689.871,-233.234 689.871,-233.234 689.871,-233.234 694.813,-232.475 690.554,-237.682 699.755,-231.716 699.755,-231.716"/>
<polygon fill="#183b69" stroke="#183b69" points="877.051,-186.281 888.015,-186.456 881.643,-184.302 886.234,-182.324 886.234,-182.324 886.234,-182.324 881.643,-184.302 884.453,-178.191 877.051,-186.281 877.051,-186.281"/>
</g>
<!-- CategoryFoursquare -->
<g id="node7" class="node"><title>CategoryFoursquare</title>
<ellipse fill="none" stroke="black" cx="342" cy="-166" rx="89.3224" ry="18"/>
<text text-anchor="middle" x="342" y="-160.4" font-family="Times,serif" font-size="14.00">CategoryFoursquare</text>
</g>
<!-- Category&#45;&gt;CategoryFoursquare -->
<g id="edge4" class="edge"><title>Category&#45;&gt;CategoryFoursquare</title>
<path fill="none" stroke="#cb13d9" d="M598.574,-227.568C546.993,-215.392 465.035,-196.044 407.666,-182.502"/>
<polygon fill="#cb13d9" stroke="#cb13d9" points="598.639,-227.584 607.338,-234.261 603.505,-228.732 608.372,-229.881 608.372,-229.881 608.372,-229.881 603.505,-228.732 609.405,-225.502 598.639,-227.584 598.639,-227.584"/>
<polygon fill="#cb13d9" stroke="#cb13d9" points="407.343,-182.425 398.644,-175.748 402.477,-181.277 397.611,-180.128 397.611,-180.128 397.611,-180.128 402.477,-181.277 396.577,-184.507 407.343,-182.425 407.343,-182.425"/>
</g>
<!-- CategoryRelation -->
<g id="node9" class="node"><title>CategoryRelation</title>
<ellipse fill="none" stroke="black" cx="708" cy="-166" rx="79.2309" ry="18"/>
<text text-anchor="middle" x="708" y="-160.4" font-family="Times,serif" font-size="14.00">CategoryRelation</text>
</g>
<!-- Category&#45;&gt;CategoryRelation -->
<g id="edge5" class="edge"><title>Category&#45;&gt;CategoryRelation</title>
<path fill="none" stroke="#6497fa" d="M666.179,-216.362C672.884,-208.448 680.44,-199.53 687.265,-191.474"/>
<ellipse fill="none" stroke="#6497fa" cx="663.428" cy="-219.61" rx="4.00002" ry="4.00002"/>
<polygon fill="#6497fa" stroke="#6497fa" points="687.325,-191.403 697.223,-186.682 690.558,-187.588 693.79,-183.773 693.79,-183.773 693.79,-183.773 690.558,-187.588 690.356,-180.864 687.325,-191.403 687.325,-191.403"/>
</g>
<!-- CategoryFacebook -->
<g id="node6" class="node"><title>CategoryFacebook</title>
<ellipse fill="none" stroke="black" cx="2049" cy="-330" rx="83.4665" ry="18"/>
<text text-anchor="middle" x="2049" y="-324.4" font-family="Times,serif" font-size="14.00">CategoryFacebook</text>
</g>
<!-- Like -->
<g id="node15" class="node"><title>Like</title>
<ellipse fill="none" stroke="black" cx="2013" cy="-240" rx="28.5985" ry="18"/>
<text text-anchor="middle" x="2013" y="-234.4" font-family="Times,serif" font-size="14.00">Like</text>
</g>
<!-- CategoryFacebook&#45;&gt;Like -->
<g id="edge6" class="edge"><title>CategoryFacebook&#45;&gt;Like</title>
<path fill="none" stroke="#9ddc6c" d="M2038.17,-302.522C2033.55,-291.236 2028.18,-278.113 2023.59,-266.893"/>
<polygon fill="#9ddc6c" stroke="#9ddc6c" points="2038.27,-302.777 2037.89,-313.737 2040.17,-307.405 2042.06,-312.033 2042.06,-312.033 2042.06,-312.033 2040.17,-307.405 2046.22,-310.329 2038.27,-302.777 2038.27,-302.777"/>
<polygon fill="#9ddc6c" stroke="#9ddc6c" points="2023.58,-266.872 2023.96,-255.913 2021.69,-262.244 2019.8,-257.617 2019.8,-257.617 2019.8,-257.617 2021.69,-262.244 2015.63,-259.321 2023.58,-266.872 2023.58,-266.872"/>
</g>
<!-- LikeCategory -->
<g id="node16" class="node"><title>LikeCategory</title>
<ellipse fill="none" stroke="black" cx="2042" cy="-166" rx="64.1964" ry="18"/>
<text text-anchor="middle" x="2042" y="-160.4" font-family="Times,serif" font-size="14.00">LikeCategory</text>
</g>
<!-- CategoryFacebook&#45;&gt;LikeCategory -->
<g id="edge7" class="edge"><title>CategoryFacebook&#45;&gt;LikeCategory</title>
<path fill="none" stroke="#e15d68" d="M2050.39,-303.868C2051.31,-282.161 2052.02,-249.971 2050,-222 2049.35,-212.969 2048.1,-203.168 2046.78,-194.375"/>
<ellipse fill="none" stroke="#e15d68" cx="2050.2" cy="-307.928" rx="4" ry="4"/>
<polygon fill="#e15d68" stroke="#e15d68" points="2046.74,-194.145 2049.61,-183.561 2045.95,-189.207 2045.17,-184.27 2045.17,-184.27 2045.17,-184.27 2045.95,-189.207 2040.72,-184.978 2046.74,-194.145 2046.74,-194.145"/>
</g>
<!-- SubcategoryFoursquare -->
<g id="node28" class="node"><title>SubcategoryFoursquare</title>
<ellipse fill="none" stroke="black" cx="342" cy="-92" rx="102.132" ry="18"/>
<text text-anchor="middle" x="342" y="-86.4" font-family="Times,serif" font-size="14.00">SubcategoryFoursquare</text>
</g>
<!-- CategoryFoursquare&#45;&gt;SubcategoryFoursquare -->
<g id="edge8" class="edge"><title>CategoryFoursquare&#45;&gt;SubcategoryFoursquare</title>
<path fill="none" stroke="#1724ed" d="M342,-139.792C342,-133.58 342,-126.896 342,-120.579"/>
<ellipse fill="none" stroke="#1724ed" cx="342" cy="-143.937" rx="4" ry="4"/>
<polygon fill="#1724ed" stroke="#1724ed" points="342,-120.441 346.5,-110.441 342,-115.441 342,-110.441 342,-110.441 342,-110.441 342,-115.441 337.5,-110.441 342,-120.441 342,-120.441"/>
</g>
<!-- City -->
<g id="node10" class="node"><title>City</title>
<ellipse fill="none" stroke="black" cx="1061" cy="-404" rx="27.5071" ry="18"/>
<text text-anchor="middle" x="1061" y="-398.4" font-family="Times,serif" font-size="14.00">City</text>
</g>
<!-- User -->
<g id="node36" class="node"><title>User</title>
<ellipse fill="none" stroke="black" cx="1619" cy="-330" rx="28.9087" ry="18"/>
<text text-anchor="middle" x="1619" y="-324.4" font-family="Times,serif" font-size="14.00">User</text>
</g>
<!-- City&#45;&gt;User -->
<g id="edge9" class="edge"><title>City&#45;&gt;User</title>
<path fill="none" stroke="#fafb69" d="M1089.23,-388.91C1092.15,-387.795 1095.1,-386.795 1098,-386 1273.1,-337.93 1491.94,-331.385 1579.82,-330.834"/>
<ellipse fill="none" stroke="#fafb69" cx="1085.38" cy="-390.523" rx="4.00002" ry="4.00002"/>
<polygon fill="#fafb69" stroke="#fafb69" points="1579.87,-330.834 1589.89,-335.294 1584.87,-330.814 1589.87,-330.794 1589.87,-330.794 1589.87,-330.794 1584.87,-330.814 1589.85,-326.294 1579.87,-330.834 1579.87,-330.834"/>
</g>
<!-- City&#45;&gt;Poi -->
<g id="edge10" class="edge"><title>City&#45;&gt;Poi</title>
<path fill="none" stroke="#920ec8" d="M1042.7,-381.553C1032.97,-367.975 1023,-349.536 1023,-331 1023,-331 1023,-331 1023,-165 1023,-150.135 1024.5,-133.625 1026.11,-120.168"/>
<ellipse fill="none" stroke="#920ec8" cx="1045.3" cy="-384.993" rx="4.00002" ry="4.00002"/>
<polygon fill="#920ec8" stroke="#920ec8" points="1026.12,-120.04 1031.86,-110.693 1026.76,-115.08 1027.39,-110.121 1027.39,-110.121 1027.39,-110.121 1026.76,-115.08 1022.93,-109.548 1026.12,-120.04 1026.12,-120.04"/>
</g>
<!-- Event -->
<g id="node13" class="node"><title>Event</title>
<ellipse fill="none" stroke="black" cx="1141" cy="-18" rx="33.3419" ry="18"/>
<text text-anchor="middle" x="1141" y="-12.4" font-family="Times,serif" font-size="14.00">Event</text>
</g>
<!-- City&#45;&gt;Event -->
<g id="edge11" class="edge"><title>City&#45;&gt;Event</title>
<path fill="none" stroke="#53c2a2" d="M1061,-377.749C1061,-363.938 1061,-346.527 1061,-331 1061,-331 1061,-331 1061,-202 1061,-140.887 1098.92,-77.1818 1122.55,-43.4212"/>
<ellipse fill="none" stroke="#53c2a2" cx="1061" cy="-381.834" rx="4" ry="4"/>
<polygon fill="#53c2a2" stroke="#53c2a2" points="1122.68,-43.24 1132.16,-37.732 1125.59,-39.1756 1128.5,-35.1111 1128.5,-35.1111 1128.5,-35.1111 1125.59,-39.1756 1124.84,-32.4902 1122.68,-43.24 1122.68,-43.24"/>
</g>
<!-- Comment -->
<g id="node11" class="node"><title>Comment</title>
<ellipse fill="none" stroke="black" cx="1383" cy="-18" rx="49.1903" ry="18"/>
<text text-anchor="middle" x="1383" y="-12.4" font-family="Times,serif" font-size="14.00">Comment</text>
</g>
<!-- Country -->
<g id="node12" class="node"><title>Country</title>
<ellipse fill="none" stroke="black" cx="1113" cy="-503" rx="42.5348" ry="18"/>
<text text-anchor="middle" x="1113" y="-497.4" font-family="Times,serif" font-size="14.00">Country</text>
</g>
<!-- Country&#45;&gt;City -->
<g id="edge12" class="edge"><title>Country&#45;&gt;City</title>
<path fill="none" stroke="#3874e2" d="M1100.11,-477.949C1092.36,-463.495 1082.51,-445.118 1074.63,-430.425"/>
<ellipse fill="none" stroke="#3874e2" cx="1102.05" cy="-481.579" rx="4.00002" ry="4.00002"/>
<polygon fill="#3874e2" stroke="#3874e2" points="1074.51,-430.193 1073.75,-419.253 1072.14,-425.786 1069.78,-421.379 1069.78,-421.379 1069.78,-421.379 1072.14,-425.786 1065.81,-423.505 1074.51,-430.193 1074.51,-430.193"/>
</g>
<!-- Zone -->
<g id="node37" class="node"><title>Zone</title>
<ellipse fill="none" stroke="black" cx="1138" cy="-404" rx="30.32" ry="18"/>
<text text-anchor="middle" x="1138" y="-398.4" font-family="Times,serif" font-size="14.00">Zone</text>
</g>
<!-- Country&#45;&gt;Zone -->
<g id="edge13" class="edge"><title>Country&#45;&gt;Zone</title>
<path fill="none" stroke="#959c45" d="M1119.53,-476.644C1123.08,-462.88 1127.47,-445.867 1131.07,-431.875"/>
<ellipse fill="none" stroke="#959c45" cx="1118.47" cy="-480.785" rx="4.00001" ry="4.00001"/>
<polygon fill="#959c45" stroke="#959c45" points="1131.16,-431.55 1138.01,-422.99 1132.41,-426.708 1133.65,-421.867 1133.65,-421.867 1133.65,-421.867 1132.41,-426.708 1129.3,-420.744 1131.16,-431.55 1131.16,-431.55"/>
</g>
<!-- Friendship -->
<g id="node14" class="node"><title>Friendship</title>
<ellipse fill="none" stroke="black" cx="1759" cy="-240" rx="52.0219" ry="18"/>
<text text-anchor="middle" x="1759" y="-234.4" font-family="Times,serif" font-size="14.00">Friendship</text>
</g>
<!-- Like&#45;&gt;LikeCategory -->
<g id="edge14" class="edge"><title>Like&#45;&gt;LikeCategory</title>
<path fill="none" stroke="#63602b" d="M2022.82,-214.619C2025.53,-207.884 2028.49,-200.541 2031.25,-193.683"/>
<ellipse fill="none" stroke="#63602b" cx="2021.22" cy="-218.59" rx="4.00001" ry="4.00001"/>
<polygon fill="#63602b" stroke="#63602b" points="2031.37,-193.385 2039.28,-185.79 2033.24,-188.747 2035.11,-184.109 2035.11,-184.109 2035.11,-184.109 2033.24,-188.747 2030.93,-182.427 2031.37,-193.385 2031.37,-193.385"/>
</g>
<!-- List -->
<g id="node17" class="node"><title>List</title>
<ellipse fill="none" stroke="black" cx="1214" cy="-240" rx="27" ry="18"/>
<text text-anchor="middle" x="1214" y="-234.4" font-family="Times,serif" font-size="14.00">List</text>
</g>
<!-- List&#45;&gt;Poi -->
<g id="edge15" class="edge"><title>List&#45;&gt;Poi</title>
<path fill="none" stroke="#827969" d="M1178.77,-230.028C1160.98,-224.405 1139.7,-215.926 1123,-204 1090.02,-180.443 1061.7,-142.539 1045.25,-117.699"/>
<polygon fill="#827969" stroke="#827969" points="1179.19,-230.154 1187.49,-237.325 1183.98,-231.583 1188.78,-233.012 1188.78,-233.012 1188.78,-233.012 1183.98,-231.583 1190.06,-228.7 1179.19,-230.154 1179.19,-230.154"/>
<polygon fill="#827969" stroke="#827969" points="1045.17,-117.582 1043.51,-106.742 1042.45,-113.385 1039.74,-109.188 1039.74,-109.188 1039.74,-109.188 1042.45,-113.385 1035.96,-111.635 1045.17,-117.582 1045.17,-117.582"/>
</g>
<!-- Package -->
<g id="node19" class="node"><title>Package</title>
<ellipse fill="none" stroke="black" cx="1378" cy="-166" rx="43.3141" ry="18"/>
<text text-anchor="middle" x="1378" y="-160.4" font-family="Times,serif" font-size="14.00">Package</text>
</g>
<!-- List&#45;&gt;Package -->
<g id="edge16" class="edge"><title>List&#45;&gt;Package</title>
<path fill="none" stroke="#ec0bba" d="M1244.51,-224.503C1246.36,-223.65 1248.2,-222.81 1250,-222 1279.82,-208.559 1313.85,-193.972 1339.32,-183.199"/>
<polygon fill="#ec0bba" stroke="#ec0bba" points="1244.33,-224.586 1233.36,-224.728 1239.8,-226.696 1235.26,-228.807 1235.26,-228.807 1235.26,-228.807 1239.8,-226.696 1237.16,-232.887 1244.33,-224.586 1244.33,-224.586"/>
<polygon fill="#ec0bba" stroke="#ec0bba" points="1339.43,-183.155 1350.39,-183.414 1344.03,-181.212 1348.64,-179.268 1348.64,-179.268 1348.64,-179.268 1344.03,-181.212 1346.89,-175.122 1339.43,-183.155 1339.43,-183.155"/>
</g>
<!-- List&#45;&gt;Event -->
<g id="edge17" class="edge"><title>List&#45;&gt;Event</title>
<path fill="none" stroke="#d54e02" d="M1186.95,-220.412C1175.39,-210.933 1162.96,-198.37 1156,-184 1134.49,-139.623 1135.06,-80.6812 1137.79,-46.5865"/>
<polygon fill="#d54e02" stroke="#d54e02" points="1187.23,-220.625 1192.38,-230.307 1191.18,-223.687 1195.13,-226.75 1195.13,-226.75 1195.13,-226.75 1191.18,-223.687 1197.89,-223.192 1187.23,-220.625 1187.23,-220.625"/>
<polygon fill="#d54e02" stroke="#d54e02" points="1137.81,-46.3977 1143.21,-36.8528 1138.27,-41.4187 1138.72,-36.4398 1138.72,-36.4398 1138.72,-36.4398 1138.27,-41.4187 1134.24,-36.0269 1137.81,-46.3977 1137.81,-46.3977"/>
</g>
<!-- ListContent -->
<g id="node18" class="node"><title>ListContent</title>
<ellipse fill="none" stroke="black" cx="1222" cy="-166" rx="56.4569" ry="18"/>
<text text-anchor="middle" x="1222" y="-160.4" font-family="Times,serif" font-size="14.00">ListContent</text>
</g>
<!-- List&#45;&gt;ListContent -->
<g id="edge18" class="edge"><title>List&#45;&gt;ListContent</title>
<path fill="none" stroke="#ecf7e7" d="M1216.8,-213.792C1217.49,-207.58 1218.23,-200.896 1218.94,-194.579"/>
<ellipse fill="none" stroke="#ecf7e7" cx="1216.34" cy="-217.961" rx="4.00001" ry="4.00001"/>
<polygon fill="#ecf7e7" stroke="#ecf7e7" points="1218.96,-194.38 1224.53,-184.938 1219.51,-189.41 1220.06,-184.441 1220.06,-184.441 1220.06,-184.441 1219.51,-189.41 1215.59,-183.944 1218.96,-194.38 1218.96,-194.38"/>
</g>
<!-- Package&#45;&gt;Poi -->
<g id="edge19" class="edge"><title>Package&#45;&gt;Poi</title>
<path fill="none" stroke="#73cda2" d="M1331.83,-155.447C1261.47,-140.891 1128.95,-113.472 1065.54,-100.354"/>
<ellipse fill="none" stroke="#73cda2" cx="1336.18" cy="-156.347" rx="4.00001" ry="4.00001"/>
<polygon fill="#73cda2" stroke="#73cda2" points="1065.41,-100.327 1056.53,-93.8943 1060.52,-99.314 1055.62,-98.301 1055.62,-98.301 1055.62,-98.301 1060.52,-99.314 1054.71,-102.708 1065.41,-100.327 1065.41,-100.327"/>
</g>
<!-- Rating -->
<g id="node24" class="node"><title>Rating</title>
<ellipse fill="none" stroke="black" cx="1511" cy="-18" rx="36.1837" ry="18"/>
<text text-anchor="middle" x="1511" y="-12.4" font-family="Times,serif" font-size="14.00">Rating</text>
</g>
<!-- Package&#45;&gt;Rating -->
<g id="edge20" class="edge"><title>Package&#45;&gt;Rating</title>
<path fill="none" stroke="#ab8f5a" d="M1398.2,-142.823C1422.88,-115.729 1464.45,-70.0952 1489.65,-42.4401"/>
<ellipse fill="none" stroke="#ab8f5a" cx="1395.44" cy="-145.861" rx="4.00002" ry="4.00002"/>
<polygon fill="#ab8f5a" stroke="#ab8f5a" points="1489.86,-42.2036 1499.92,-37.8415 1493.23,-38.5073 1496.6,-34.8111 1496.6,-34.8111 1496.6,-34.8111 1493.23,-38.5073 1493.27,-31.7806 1489.86,-42.2036 1489.86,-42.2036"/>
</g>
<!-- Package&#45;&gt;Comment -->
<g id="edge21" class="edge"><title>Package&#45;&gt;Comment</title>
<path fill="none" stroke="#4f3306" d="M1378.86,-139.8C1379.75,-113.827 1381.14,-73.4489 1382.05,-46.6216"/>
<ellipse fill="none" stroke="#4f3306" cx="1378.72" cy="-143.969" rx="4" ry="4"/>
<polygon fill="#4f3306" stroke="#4f3306" points="1382.06,-46.372 1386.9,-36.5319 1382.23,-41.3749 1382.4,-36.3779 1382.4,-36.3779 1382.4,-36.3779 1382.23,-41.3749 1377.91,-36.2238 1382.06,-46.372 1382.06,-46.372"/>
</g>
<!-- Package&#45;&gt;Event -->
<g id="edge22" class="edge"><title>Package&#45;&gt;Event</title>
<path fill="none" stroke="#19ca4c" d="M1372.12,-140.246C1364.68,-114.565 1349.29,-75.2491 1321,-54 1299.76,-38.0468 1229.72,-28.0197 1183.53,-22.9717"/>
<ellipse fill="none" stroke="#19ca4c" cx="1373.21" cy="-144.206" rx="4.00001" ry="4.00001"/>
<polygon fill="#19ca4c" stroke="#19ca4c" points="1183.44,-22.9618 1173.97,-17.4363 1178.47,-22.4366 1173.49,-21.9114 1173.49,-21.9114 1173.49,-21.9114 1178.47,-22.4366 1173.02,-26.3865 1183.44,-22.9618 1183.44,-22.9618"/>
</g>
<!-- Photo -->
<g id="node20" class="node"><title>Photo</title>
<ellipse fill="none" stroke="black" cx="937" cy="-18" rx="33.363" ry="18"/>
<text text-anchor="middle" x="937" y="-12.4" font-family="Times,serif" font-size="14.00">Photo</text>
</g>
<!-- Poi&#45;&gt;Photo -->
<g id="edge23" class="edge"><title>Poi&#45;&gt;Photo</title>
<path fill="none" stroke="#6b59cf" d="M1006.45,-72.7688C993.283,-62.5737 976.836,-49.8408 963.253,-39.3252"/>
<ellipse fill="none" stroke="#6b59cf" cx="1009.78" cy="-75.3454" rx="4.00002" ry="4.00002"/>
<polygon fill="#6b59cf" stroke="#6b59cf" points="963.129,-39.2286 957.976,-29.5485 959.175,-36.1677 955.221,-33.1068 955.221,-33.1068 955.221,-33.1068 959.175,-36.1677 952.466,-36.6651 963.129,-39.2286 963.129,-39.2286"/>
</g>
<!-- Poi&#45;&gt;Event -->
<g id="edge24" class="edge"><title>Poi&#45;&gt;Event</title>
<path fill="none" stroke="#864cea" d="M1053.4,-72.8151C1061.65,-66.6306 1071.1,-59.8166 1080,-54 1089.37,-47.8739 1099.85,-41.646 1109.45,-36.1752"/>
<ellipse fill="none" stroke="#864cea" cx="1049.96" cy="-75.412" rx="4.00002" ry="4.00002"/>
<polygon fill="#864cea" stroke="#864cea" points="1109.6,-36.0918 1120.52,-35.1123 1113.96,-33.6409 1118.32,-31.19 1118.32,-31.19 1118.32,-31.19 1113.96,-33.6409 1116.11,-27.2676 1109.6,-36.0918 1109.6,-36.0918"/>
</g>
<!-- Poi&#45;&gt;Rating -->
<g id="edge25" class="edge"><title>Poi&#45;&gt;Rating</title>
<path fill="none" stroke="#d4b705" d="M1064.78,-87.5946C1135.84,-80.3634 1302.64,-61.9837 1441,-36 1450.39,-34.2371 1460.4,-32.0129 1469.84,-29.7597"/>
<ellipse fill="none" stroke="#d4b705" cx="1060.58" cy="-88.019" rx="4" ry="4"/>
<polygon fill="#d4b705" stroke="#d4b705" points="1470.08,-29.7013 1480.86,-31.6947 1474.93,-28.5125 1479.79,-27.3237 1479.79,-27.3237 1479.79,-27.3237 1474.93,-28.5125 1478.72,-22.9527 1470.08,-29.7013 1470.08,-29.7013"/>
</g>
<!-- Poi&#45;&gt;Comment -->
<g id="edge26" class="edge"><title>Poi&#45;&gt;Comment</title>
<path fill="none" stroke="#336eca" d="M1063.24,-84.2205C1124.95,-71.6338 1257.62,-44.5734 1331.2,-29.5663"/>
<ellipse fill="none" stroke="#336eca" cx="1059.31" cy="-85.0225" rx="4.00001" ry="4.00001"/>
<polygon fill="#336eca" stroke="#336eca" points="1331.37,-29.5301 1342.07,-31.9407 1336.27,-28.5308 1341.17,-27.5315 1341.17,-27.5315 1341.17,-27.5315 1336.27,-28.5308 1340.27,-23.1223 1331.37,-29.5301 1331.37,-29.5301"/>
</g>
<!-- RouteInfo -->
<g id="node25" class="node"><title>RouteInfo</title>
<ellipse fill="none" stroke="black" cx="1039" cy="-18" rx="50.289" ry="18"/>
<text text-anchor="middle" x="1039" y="-12.4" font-family="Times,serif" font-size="14.00">RouteInfo</text>
</g>
<!-- Poi&#45;&gt;RouteInfo -->
<g id="edge27" class="edge"><title>Poi&#45;&gt;RouteInfo</title>
<path fill="none" stroke="#29e6c8" d="M1033.15,-65.7923C1033.93,-59.5805 1034.76,-52.8963 1035.55,-46.5786"/>
<ellipse fill="none" stroke="#29e6c8" cx="1032.63" cy="-69.9679" rx="4.00001" ry="4.00001"/>
<polygon fill="#29e6c8" stroke="#29e6c8" points="1035.58,-46.3635 1041.29,-36.9989 1036.2,-41.4021 1036.82,-36.4407 1036.82,-36.4407 1036.82,-36.4407 1036.2,-41.4021 1032.35,-35.8825 1035.58,-46.3635 1035.58,-46.3635"/>
</g>
<!-- RoutePoint -->
<g id="node26" class="node"><title>RoutePoint</title>
<ellipse fill="none" stroke="black" cx="831" cy="-18" rx="54.2462" ry="18"/>
<text text-anchor="middle" x="831" y="-12.4" font-family="Times,serif" font-size="14.00">RoutePoint</text>
</g>
<!-- Poi&#45;&gt;RoutePoint -->
<g id="edge28" class="edge"><title>Poi&#45;&gt;RoutePoint</title>
<path fill="none" stroke="#dd0e3e" d="M999.059,-79.8052C966.124,-67.8892 913.685,-48.9163 876.143,-35.3331"/>
<ellipse fill="none" stroke="#dd0e3e" cx="1003.02" cy="-81.2388" rx="4.00001" ry="4.00001"/>
<polygon fill="#dd0e3e" stroke="#dd0e3e" points="875.863,-35.232 867.991,-27.5981 871.162,-33.5308 866.46,-31.8297 866.46,-31.8297 866.46,-31.8297 871.162,-33.5308 864.929,-36.0612 875.863,-35.232 875.863,-35.232"/>
</g>
<!-- Profile -->
<g id="node22" class="node"><title>Profile</title>
<ellipse fill="none" stroke="black" cx="1652" cy="-240" rx="36.1907" ry="18"/>
<text text-anchor="middle" x="1652" y="-234.4" font-family="Times,serif" font-size="14.00">Profile</text>
</g>
<!-- Provider -->
<g id="node23" class="node"><title>Provider</title>
<ellipse fill="none" stroke="black" cx="1303" cy="-240" rx="43.942" ry="18"/>
<text text-anchor="middle" x="1303" y="-234.4" font-family="Times,serif" font-size="14.00">Provider</text>
</g>
<!-- Provider&#45;&gt;Package -->
<g id="edge29" class="edge"><title>Provider&#45;&gt;Package</title>
<path fill="none" stroke="#567df0" d="M1325.49,-217.411C1334.58,-208.685 1345.08,-198.607 1354.29,-189.766"/>
<ellipse fill="none" stroke="#567df0" cx="1322.53" cy="-220.251" rx="4.00002" ry="4.00002"/>
<polygon fill="#567df0" stroke="#567df0" points="1354.45,-189.612 1364.78,-185.933 1358.05,-186.149 1361.66,-182.687 1361.66,-182.687 1361.66,-182.687 1358.05,-186.149 1358.54,-179.44 1354.45,-189.612 1354.45,-189.612"/>
</g>
<!-- Provider&#45;&gt;Event -->
<g id="edge30" class="edge"><title>Provider&#45;&gt;Event</title>
<path fill="none" stroke="#645a5d" d="M1302.97,-213.54C1301.94,-194.41 1298.28,-168.146 1287,-148 1259.38,-98.6978 1205.63,-58.8042 1171.62,-37.037"/>
<ellipse fill="none" stroke="#645a5d" cx="1303.13" cy="-217.783" rx="4" ry="4"/>
<polygon fill="#645a5d" stroke="#645a5d" points="1171.48,-36.9505 1165.39,-27.8284 1167.24,-34.2963 1163,-31.642 1163,-31.642 1163,-31.642 1167.24,-34.2963 1160.62,-35.4557 1171.48,-36.9505 1171.48,-36.9505"/>
</g>
<!-- Subcategory&#45;&gt;Poi -->
<g id="edge31" class="edge"><title>Subcategory&#45;&gt;Poi</title>
<path fill="none" stroke="#2a3103" d="M602.826,-151.638C608.598,-150.316 614.413,-149.07 620,-148 756.534,-121.86 920.996,-103.806 993.096,-96.5543"/>
<ellipse fill="none" stroke="#2a3103" cx="598.9" cy="-152.562" rx="4.00001" ry="4.00001"/>
<polygon fill="#2a3103" stroke="#2a3103" points="993.502,-96.5139 1003.9,-100.001 998.478,-96.0186 1003.45,-95.5233 1003.45,-95.5233 1003.45,-95.5233 998.478,-96.0186 1003.01,-91.0454 993.502,-96.5139 993.502,-96.5139"/>
</g>
<!-- Supercategory -->
<g id="node29" class="node"><title>Supercategory</title>
<ellipse fill="none" stroke="black" cx="465" cy="-330" rx="66.2154" ry="18"/>
<text text-anchor="middle" x="465" y="-324.4" font-family="Times,serif" font-size="14.00">Supercategory</text>
</g>
<!-- Supercategory&#45;&gt;Category -->
<g id="edge32" class="edge"><title>Supercategory&#45;&gt;Category</title>
<path fill="none" stroke="#ec3a90" d="M503.866,-310.208C535.24,-295.038 579.089,-273.836 609.964,-258.908"/>
<ellipse fill="none" stroke="#ec3a90" cx="499.888" cy="-312.131" rx="4.00002" ry="4.00002"/>
<polygon fill="#ec3a90" stroke="#ec3a90" points="610.098,-258.843 621.06,-258.541 614.6,-256.666 619.101,-254.49 619.101,-254.49 619.101,-254.49 614.6,-256.666 617.142,-250.438 610.098,-258.843 610.098,-258.843"/>
</g>
<!-- Supercategory&#45;&gt;Poi -->
<g id="edge33" class="edge"><title>Supercategory&#45;&gt;Poi</title>
<path fill="none" stroke="#05f98b" d="M458.838,-303.588C450.978,-264.263 442.891,-188.937 484,-148 520.005,-112.145 875.19,-97.8535 992.567,-94.0859"/>
<ellipse fill="none" stroke="#05f98b" cx="459.765" cy="-307.95" rx="4.00001" ry="4.00001"/>
<polygon fill="#05f98b" stroke="#05f98b" points="992.852,-94.0771 1002.99,-98.2613 997.85,-93.9203 1002.85,-93.7635 1002.85,-93.7635 1002.85,-93.7635 997.85,-93.9203 1002.71,-89.2657 992.852,-94.0771 992.852,-94.0771"/>
</g>
<!-- SupercategoryMinube -->
<g id="node31" class="node"><title>SupercategoryMinube</title>
<ellipse fill="none" stroke="black" cx="884" cy="-240" rx="96.2764" ry="18"/>
<text text-anchor="middle" x="884" y="-234.4" font-family="Times,serif" font-size="14.00">SupercategoryMinube</text>
</g>
<!-- Supercategory&#45;&gt;SupercategoryMinube -->
<g id="edge34" class="edge"><title>Supercategory&#45;&gt;SupercategoryMinube</title>
<path fill="none" stroke="#65c38a" d="M525.799,-316.231C601.814,-300.266 731.74,-272.978 812.463,-256.024"/>
<polygon fill="#65c38a" stroke="#65c38a" points="525.745,-316.242 515.034,-313.894 520.852,-317.27 515.959,-318.297 515.959,-318.297 515.959,-318.297 520.852,-317.27 516.884,-322.701 525.745,-316.242 525.745,-316.242"/>
<polygon fill="#65c38a" stroke="#65c38a" points="812.756,-255.963 823.468,-258.311 817.649,-254.935 822.543,-253.908 822.543,-253.908 822.543,-253.908 817.649,-254.935 821.618,-249.504 812.756,-255.963 812.756,-255.963"/>
</g>
<!-- SupercategoryFoursquare -->
<g id="node30" class="node"><title>SupercategoryFoursquare</title>
<ellipse fill="none" stroke="black" cx="327" cy="-240" rx="109.885" ry="18"/>
<text text-anchor="middle" x="327" y="-234.4" font-family="Times,serif" font-size="14.00">SupercategoryFoursquare</text>
</g>
<!-- Supercategory&#45;&gt;SupercategoryFoursquare -->
<g id="edge35" class="edge"><title>Supercategory&#45;&gt;SupercategoryFoursquare</title>
<path fill="none" stroke="#c0f245" d="M431.859,-307.867C410.705,-294.377 383.324,-276.917 361.847,-263.221"/>
<polygon fill="#c0f245" stroke="#c0f245" points="431.897,-307.891 437.909,-317.062 436.113,-310.579 440.328,-313.267 440.328,-313.267 440.328,-313.267 436.113,-310.579 442.748,-309.473 431.897,-307.891 431.897,-307.891"/>
<polygon fill="#c0f245" stroke="#c0f245" points="361.769,-263.172 355.757,-254.001 357.553,-260.483 353.338,-257.795 353.338,-257.795 353.338,-257.795 357.553,-260.483 350.918,-261.589 361.769,-263.172 361.769,-263.172"/>
</g>
<!-- SupercategoryRelation -->
<g id="node32" class="node"><title>SupercategoryRelation</title>
<ellipse fill="none" stroke="black" cx="99" cy="-240" rx="99.2929" ry="18"/>
<text text-anchor="middle" x="99" y="-234.4" font-family="Times,serif" font-size="14.00">SupercategoryRelation</text>
</g>
<!-- Supercategory&#45;&gt;SupercategoryRelation -->
<g id="edge36" class="edge"><title>Supercategory&#45;&gt;SupercategoryRelation</title>
<path fill="none" stroke="#0fd410" d="M409.039,-315.545C343.769,-299.851 235.936,-273.924 166.194,-257.156"/>
<ellipse fill="none" stroke="#0fd410" cx="413.263" cy="-316.56" rx="4.00001" ry="4.00001"/>
<polygon fill="#0fd410" stroke="#0fd410" points="165.914,-257.089 157.243,-250.375 161.052,-255.92 156.191,-254.751 156.191,-254.751 156.191,-254.751 161.052,-255.92 155.139,-259.126 165.914,-257.089 165.914,-257.089"/>
</g>
<!-- SupercategoryFoursquare&#45;&gt;CategoryFoursquare -->
<g id="edge37" class="edge"><title>SupercategoryFoursquare&#45;&gt;CategoryFoursquare</title>
<path fill="none" stroke="#d0ddea" d="M332.19,-214.086C333.494,-207.826 334.902,-201.072 336.232,-194.686"/>
<ellipse fill="none" stroke="#d0ddea" cx="331.371" cy="-218.021" rx="4.00001" ry="4.00001"/>
<polygon fill="#d0ddea" stroke="#d0ddea" points="336.327,-194.23 342.772,-185.359 337.347,-189.336 338.367,-184.441 338.367,-184.441 338.367,-184.441 337.347,-189.336 333.961,-183.523 336.327,-194.23 336.327,-194.23"/>
</g>
<!-- SupercategoryMinube&#45;&gt;CategoryMinube -->
<g id="edge38" class="edge"><title>SupercategoryMinube&#45;&gt;CategoryMinube</title>
<path fill="none" stroke="#973232" d="M895.881,-214.559C899.247,-207.635 902.923,-200.073 906.333,-193.057"/>
<ellipse fill="none" stroke="#973232" cx="894.043" cy="-218.34" rx="4.00002" ry="4.00002"/>
<polygon fill="#973232" stroke="#973232" points="906.393,-192.934 914.812,-185.908 908.579,-188.437 910.765,-183.941 910.765,-183.941 910.765,-183.941 908.579,-188.437 906.718,-181.973 906.393,-192.934 906.393,-192.934"/>
</g>
<!-- TypeLeisure -->
<g id="node33" class="node"><title>TypeLeisure</title>
<ellipse fill="none" stroke="black" cx="1462" cy="-240" rx="59.2416" ry="18"/>
<text text-anchor="middle" x="1462" y="-234.4" font-family="Times,serif" font-size="14.00">TypeLeisure</text>
</g>
<!-- TypeLeisure&#45;&gt;Package -->
<g id="edge39" class="edge"><title>TypeLeisure&#45;&gt;Package</title>
<path fill="none" stroke="#b9f70b" d="M1436.75,-217.359C1426.33,-208.422 1414.25,-198.074 1403.77,-189.09"/>
<ellipse fill="none" stroke="#b9f70b" cx="1439.9" cy="-220.059" rx="4.00002" ry="4.00002"/>
<polygon fill="#b9f70b" stroke="#b9f70b" points="1403.71,-189.041 1399.05,-179.116 1399.92,-185.787 1396.12,-182.533 1396.12,-182.533 1396.12,-182.533 1399.92,-185.787 1393.19,-185.95 1403.71,-189.041 1403.71,-189.041"/>
</g>
<!-- TypeTime -->
<g id="node34" class="node"><title>TypeTime</title>
<ellipse fill="none" stroke="black" cx="1224" cy="-503" rx="50.3741" ry="18"/>
<text text-anchor="middle" x="1224" y="-497.4" font-family="Times,serif" font-size="14.00">TypeTime</text>
</g>
<!-- TypeVehicle -->
<g id="node35" class="node"><title>TypeVehicle</title>
<ellipse fill="none" stroke="black" cx="1351" cy="-503" rx="59.2416" ry="18"/>
<text text-anchor="middle" x="1351" y="-497.4" font-family="Times,serif" font-size="14.00">TypeVehicle</text>
</g>
<!-- User&#45;&gt;Authentication -->
<g id="edge40" class="edge"><title>User&#45;&gt;Authentication</title>
<path fill="none" stroke="#e097ee" d="M1656.35,-329.145C1701.27,-327.969 1777.99,-321.582 1837,-294 1851.73,-287.116 1865.62,-275.605 1876.42,-265.067"/>
<ellipse fill="none" stroke="#e097ee" cx="1652.34" cy="-329.227" rx="4" ry="4"/>
<polygon fill="#e097ee" stroke="#e097ee" points="1876.69,-264.783 1886.91,-260.796 1880.2,-261.214 1883.7,-257.645 1883.7,-257.645 1883.7,-257.645 1880.2,-261.214 1880.49,-254.493 1876.69,-264.783 1876.69,-264.783"/>
</g>
<!-- User&#45;&gt;Package -->
<g id="edge41" class="edge"><title>User&#45;&gt;Package</title>
<path fill="none" stroke="#f10c66" d="M1581.71,-328.473C1531.19,-325.615 1441.82,-312.569 1394,-258 1378.85,-240.718 1375.65,-214.282 1375.76,-194.349"/>
<ellipse fill="none" stroke="#f10c66" cx="1585.78" cy="-328.669" rx="4" ry="4"/>
<polygon fill="#f10c66" stroke="#f10c66" points="1375.76,-194.317 1380.59,-184.472 1375.93,-189.319 1376.1,-184.322 1376.1,-184.322 1376.1,-184.322 1375.93,-189.319 1371.6,-184.173 1375.76,-194.317 1375.76,-194.317"/>
</g>
<!-- User&#45;&gt;Profile -->
<g id="edge42" class="edge"><title>User&#45;&gt;Profile</title>
<path fill="none" stroke="#01e0b9" d="M1628.28,-304.244C1632.57,-292.804 1637.67,-279.203 1642.04,-267.55"/>
<ellipse fill="none" stroke="#01e0b9" cx="1626.77" cy="-308.287" rx="4.00001" ry="4.00001"/>
<polygon fill="#01e0b9" stroke="#01e0b9" points="1642.15,-267.278 1649.87,-259.495 1643.9,-262.597 1645.66,-257.915 1645.66,-257.915 1645.66,-257.915 1643.9,-262.597 1641.44,-256.335 1642.15,-267.278 1642.15,-267.278"/>
</g>
<!-- User&#45;&gt;Friendship -->
<g id="edge43" class="edge"><title>User&#45;&gt;Friendship</title>
<path fill="none" stroke="#2963fd" d="M1645.68,-312.23C1668.68,-297.773 1701.96,-276.853 1726.51,-261.423"/>
<ellipse fill="none" stroke="#2963fd" cx="1642.15" cy="-314.45" rx="4.00002" ry="4.00002"/>
<polygon fill="#2963fd" stroke="#2963fd" points="1726.66,-261.331 1737.52,-259.819 1730.89,-258.67 1735.12,-256.009 1735.12,-256.009 1735.12,-256.009 1730.89,-258.67 1732.73,-252.199 1726.66,-261.331 1726.66,-261.331"/>
</g>
<!-- User&#45;&gt;User -->
<g id="edge44" class="edge"><title>User&#45;&gt;User</title>
<path fill="none" stroke="#97cb47" d="M1656.32,-336.173C1662.08,-335.241 1666,-333.184 1666,-330 1666,-326.816 1662.08,-324.759 1656.32,-323.827"/>
<polygon fill="#97cb47" stroke="#97cb47" points="1656.03,-336.187 1645.81,-332.215 1651.04,-336.448 1646.05,-336.709 1646.05,-336.709 1646.05,-336.709 1651.04,-336.448 1646.28,-341.203 1656.03,-336.187 1656.03,-336.187"/>
<polygon fill="#97cb47" stroke="#97cb47" points="1656.03,-323.813 1646.28,-318.797 1651.04,-323.552 1646.05,-323.291 1646.05,-323.291 1646.05,-323.291 1651.04,-323.552 1645.81,-327.785 1656.03,-323.813 1656.03,-323.813"/>
<text text-anchor="middle" x="1685.44" y="-324.4" font-family="Times,serif" font-size="14.00">friends</text>
</g>
<!-- User&#45;&gt;Friendship -->
<g id="edge45" class="edge"><title>User&#45;&gt;Friendship</title>
<path fill="none" stroke="#c647c1" d="M1652.04,-318.399C1668.11,-312.472 1687.29,-304.21 1703,-294 1715.52,-285.862 1727.76,-274.751 1737.59,-264.805"/>
<ellipse fill="none" stroke="#c647c1" cx="1648.2" cy="-319.773" rx="4.00001" ry="4.00001"/>
<polygon fill="#c647c1" stroke="#c647c1" points="1737.68,-264.711 1747.85,-260.608 1741.14,-261.102 1744.6,-257.494 1744.6,-257.494 1744.6,-257.494 1741.14,-261.102 1741.36,-254.379 1737.68,-264.711 1737.68,-264.711"/>
<text text-anchor="middle" x="1778.82" y="-279.4" font-family="Times,serif" font-size="14.00">inverse_friendships</text>
</g>
<!-- User&#45;&gt;User -->
<g id="edge46" class="edge"><title>User&#45;&gt;User</title>
<path fill="none" stroke="#0d69ac" d="M1656.32,-336.173C1662.08,-335.241 1666,-333.184 1666,-330 1666,-326.816 1662.08,-324.759 1656.32,-323.827"/>
<polygon fill="#0d69ac" stroke="#0d69ac" points="1656.03,-336.187 1645.81,-332.215 1651.04,-336.448 1646.05,-336.709 1646.05,-336.709 1646.05,-336.709 1651.04,-336.448 1646.28,-341.203 1656.03,-336.187 1656.03,-336.187"/>
<polygon fill="#0d69ac" stroke="#0d69ac" points="1656.03,-323.813 1646.28,-318.797 1651.04,-323.552 1646.05,-323.291 1646.05,-323.291 1646.05,-323.291 1651.04,-323.552 1645.81,-327.785 1656.03,-323.813 1656.03,-323.813"/>
<text text-anchor="middle" x="1709.15" y="-324.4" font-family="Times,serif" font-size="14.00">inverse_friends</text>
</g>
<!-- User&#45;&gt;List -->
<g id="edge47" class="edge"><title>User&#45;&gt;List</title>
<path fill="none" stroke="#969366" d="M1582.05,-326.079C1531.62,-321.62 1438.65,-311.709 1361,-294 1310.44,-282.468 1298.21,-277.112 1250,-258 1248.17,-257.274 1246.3,-256.499 1244.42,-255.695"/>
<ellipse fill="none" stroke="#969366" cx="1586.08" cy="-326.428" rx="4" ry="4"/>
<polygon fill="#969366" stroke="#969366" points="1244.25,-255.616 1236.96,-247.418 1239.68,-253.57 1235.12,-251.524 1235.12,-251.524 1235.12,-251.524 1239.68,-253.57 1233.28,-255.63 1244.25,-255.616 1244.25,-255.616"/>
</g>
<!-- User&#45;&gt;Like -->
<g id="edge48" class="edge"><title>User&#45;&gt;Like</title>
<path fill="none" stroke="#6079ec" d="M1656.08,-325.645C1704.22,-320.843 1790.62,-310.698 1863,-294 1913.95,-282.246 1926.17,-276.704 1975,-258 1977.08,-257.202 1979.22,-256.349 1981.36,-255.466"/>
<ellipse fill="none" stroke="#6079ec" cx="1651.82" cy="-326.062" rx="4" ry="4"/>
<polygon fill="#6079ec" stroke="#6079ec" points="1981.47,-255.417 1992.44,-255.617 1986.07,-253.449 1990.67,-251.48 1990.67,-251.48 1990.67,-251.48 1986.07,-253.449 1988.89,-247.344 1981.47,-255.417 1981.47,-255.417"/>
</g>
<!-- User&#45;&gt;Rating -->
<g id="edge49" class="edge"><title>User&#45;&gt;Rating</title>
<path fill="none" stroke="#7d8197" d="M1605.33,-305.367C1596.64,-288.111 1587,-263.838 1587,-241 1587,-241 1587,-241 1587,-91 1587,-66.4597 1565.86,-47.7771 1545.88,-35.5997"/>
<ellipse fill="none" stroke="#7d8197" cx="1607.36" cy="-309.23" rx="4.00002" ry="4.00002"/>
<polygon fill="#7d8197" stroke="#7d8197" points="1545.84,-35.5788 1539.38,-26.7145 1541.5,-33.101 1537.15,-30.6231 1537.15,-30.6231 1537.15,-30.6231 1541.5,-33.101 1534.92,-34.5316 1545.84,-35.5788 1545.84,-35.5788"/>
</g>
<!-- User&#45;&gt;Comment -->
<g id="edge50" class="edge"><title>User&#45;&gt;Comment</title>
<path fill="none" stroke="#d4096a" d="M1592.95,-311.306C1573.05,-295.475 1549,-270.29 1549,-241 1549,-241 1549,-241 1549,-128 1549,-72.6829 1483.79,-43.8891 1435.12,-30.1009"/>
<ellipse fill="none" stroke="#d4096a" cx="1596.32" cy="-313.881" rx="4.00002" ry="4.00002"/>
<polygon fill="#d4096a" stroke="#d4096a" points="1434.97,-30.0625 1426.49,-23.116 1430.15,-28.7618 1425.32,-27.461 1425.32,-27.461 1425.32,-27.461 1430.15,-28.7618 1424.15,-31.8061 1434.97,-30.0625 1434.97,-30.0625"/>
</g>
</g>
</svg>
